<svg width="432.66669" height="430.66669" xmlns="http://www.w3.org/2000/svg">
 <metadata id="metadata8">image/svg+xml</metadata>
 <defs>
  <clipPath clipPathUnits="userSpaceOnUse" id="clipPath20">
   <path d="m-88.25,590l500,0l0,-500l-500,0l0,500z" id="path18"/>
  </clipPath>
  <clipPath clipPathUnits="userSpaceOnUse" id="clipPath58">
   <path d="m156.031,313.564l93.089,0l0,-86.822l-93.089,0l0,86.822z" id="path56"/>
  </clipPath>
 </defs>
 <g>
  <title>background</title>
  <rect fill="none" id="canvas_background" height="432.66669" width="434.66669" y="-1" x="-1"/>
 </g>
 <g>
  <title>Layer 1</title>
  <g id="g10" transform="matrix(1.3333333,0,0,-1.3333333,0,666.66667) ">
   <g id="g14">
    <g id="g16" clip-path="url(#clipPath20)">
     <g id="g22">
      <path fill="#31b5ab" fill-rule="nonzero" d="m319.75,339c0,-86.709 -70.291,-157 -157,-157c-86.708,0 -157,70.291 -157,157c0,86.708 70.292,157 157,157c86.709,0 157,-70.292 157,-157" id="path24"/>
     </g>
     <g id="g26">
      <path fill="#229386" fill-rule="nonzero" d="m254.751007,301.116196l-0.217,0.217l0,0.001l-3.439,3.439l-1.791,1.791l-5.231,5.23c-0.976,0.976 -2.264,1.462 -3.551,1.457l0,106.413l-125.108,0l-32.436,0l0,-189.052l32.436,0l52.104,0l-1.466,-5.471l-3.274,-3.273c-0.364,-0.364 -0.364,-0.961 0,-1.325l0.252,-0.252l0.293,-0.293c0.342,-0.342 0.903,-0.342 1.244,0l3.315,3.314l21.449,5.747l-0.07,0.072c0.076,0.042 0.141,0.105 0.215,0.155c0.029,0.018 0.056,0.042 0.086,0.062c0.07,0.053 0.148,0.09 0.211,0.154l1.111,1.11l49.638,0l0,49.638l0.016,0.016l13.996,13.996l0.001,0.001l0.216,0.216c1.825,1.825 1.825,4.812 0,6.637" id="path28"/>
     </g>
     <path fill="#85796f" fill-rule="nonzero" d="m108.414,237.612l-32.436,0l0,189.052l32.436,0l0,-189.052z" id="path30"/>
     <path fill="#decdc0" fill-rule="nonzero" d="m233.521,237.612l-125.107,0l0,189.052l125.107,0l0,-189.052z" id="path32"/>
     <path fill="#bca99d" fill-rule="nonzero" d="m208.281,364.084l-70.224,0l0,31.658l70.224,0l0,-31.658z" id="path34"/>
     <g id="g36">
      <path fill="#f0bd56" fill-rule="nonzero" d="m179.481415,236.6064l-14.135,14.135c-0.934,0.934 -0.934,2.463 0,3.397l50.659,50.659l17.533,-17.531l-50.661,-50.66c-0.933,-0.934 -2.462,-0.934 -3.396,0" id="path38"/>
     </g>
     <g id="g40">
      <path fill="#decdc0" fill-rule="nonzero" d="m158.382797,229.642593l23.948,6.417l-17.531,17.532l-6.417,-23.949z" id="path42"/>
     </g>
     <g id="g44">
      <path fill="#ef5643" fill-rule="nonzero" d="m233.538086,287.266602l-17.532,17.531l13.996,13.996c1.945,1.946 5.127,1.946 7.071,0l10.461,-10.46c1.944,-1.944 1.944,-5.127 0,-7.071l-13.996,-13.996z" id="path46"/>
     </g>
     <g id="g48">
      <path fill="#6d6762" fill-rule="nonzero" d="m156.2827,227.039093l-0.504,0.504c-0.365,0.364 -0.365,0.961 0,1.325l4.489,4.489c0.365,0.365 0.961,0.365 1.326,0l0.503,-0.504c0.365,-0.364 0.365,-0.96 0,-1.325l-4.489,-4.489c-0.365,-0.364 -0.961,-0.364 -1.325,0" id="path50"/>
     </g>
     <g id="g52">
      <g id="g54"/>
      <g id="g66">
       <g opacity="0.199997" clip-path="url(#clipPath58)" id="g64">
        <g id="g62">
         <path fill="#6d6762" fill-rule="nonzero" d="m247.751007,308.116196l-5.447,5.448l-86.273,-86.273l0.292,-0.293c0.343,-0.342 0.902,-0.342 1.244,0l3.315,3.314l21.449,5.747l-0.07,0.072c0.182,0.099 0.358,0.216 0.512,0.371l50.765,50.764l14.213,14.213c1.825,1.825 1.825,4.812 0,6.637" id="path60"/>
        </g>
       </g>
      </g>
     </g>
     <path fill="#85796f" fill-rule="nonzero" d="m203.964,387.108l-58.999,0l0,2.302l58.999,0l0,-2.302z" id="path68"/>
     <path fill="#85796f" fill-rule="nonzero" d="m203.964,378.762l-58.999,0l0,2.302l58.999,0l0,-2.302z" id="path70"/>
     <path fill="#85796f" fill-rule="nonzero" d="m203.964,370.416l-58.999,0l0,2.302l58.999,0l0,-2.302z" id="path72"/>
    </g>
   </g>
  </g>
 </g>
</svg>