<svg width="558" height="159" xmlns="http://www.w3.org/2000/svg" xmlns:xlink="http://www.w3.org/1999/xlink" preserveAspectRatio="xMidYMid meet">
 <defs>
  <path id="bGLZv8Rwz" d="m439.01,189.8l0.5,0.01l0.5,0.01l0.5,0.01l0.5,0.02l0.5,0.02l0.5,0.02l0.5,0.02l0.5,0.03l0.5,0.03l0.5,0.03l0.5,0.04l0.5,0.04l0.49,0.05l0.5,0.05l0.5,0.05l0.5,0.06l0.49,0.06l0.5,0.07l0.49,0.07l0.5,0.07l0.49,0.08l0.49,0.08l0.5,0.09l0.49,0.09l0.49,0.1l0.49,0.1l0.48,0.11l0.49,0.11l0.49,0.12l0.48,0.12l0.48,0.13l0.48,0.14l0.49,0.14l0.47,0.14l0.48,0.15l0.48,0.16l0.34,0.11l0.34,0.12l0.33,0.12l0.34,0.12l0.33,0.13l0.33,0.13l0.34,0.13l0.33,0.14l0.32,0.14l0.33,0.14l0.33,0.14l0.32,0.15l0.33,0.15l0.32,0.15l0.32,0.15l0.33,0.16l0.32,0.15l0.32,0.16l0.31,0.16l0.32,0.17l0.32,0.16l0.32,0.17l0.31,0.16l0.32,0.17l0.31,0.17l0.32,0.17l0.31,0.18l0.31,0.17l0.31,0.17l0.32,0.18l0.31,0.17l0.31,0.18l0.31,0.17l0.31,0.18l0.31,0.18l0.31,0.17l0.31,0.18l0.31,0.18l0.31,0.18l0.31,0.17l0.22,0.14l0.21,0.14l0.21,0.14l0.21,0.15l0.2,0.15l0.2,0.16l0.2,0.16l0.19,0.17l0.19,0.16l0.19,0.17l0.18,0.18l0.18,0.18l0.18,0.18l0.18,0.18l0.17,0.19l0.16,0.19l0.17,0.19l0.16,0.2l0.16,0.2l0.16,0.2l0.15,0.2l0.15,0.21l0.15,0.2l0.14,0.21l0.14,0.22l0.14,0.21l0.14,0.22l0.13,0.21l0.13,0.22l0.13,0.22l0.12,0.23l0.12,0.22l0.12,0.23l0.12,0.22l0.11,0.23l0.11,0.23l0.11,0.23l0.11,0.23l0.1,0.23l0.1,0.23l0.14,0.35l0.14,0.34l0.13,0.35l0.14,0.35l0.12,0.35l0.13,0.35l0.12,0.36l0.11,0.35l0.11,0.36l0.11,0.36l0.11,0.36l0.1,0.36l0.1,0.36l0.09,0.36l0.09,0.36l0.09,0.37l0.08,0.36l0.08,0.37l0.07,0.36l0.07,0.37l0.07,0.37l0.07,0.37l0.05,0.37l0.06,0.37l0.05,0.37l0.05,0.37l0.04,0.37l0.04,0.37l0.04,0.37l0.03,0.37l0.03,0.38l0.02,0.37l0.02,0.37l0.01,0.38l0.01,0.37l0.01,0.37l0,0.38l0,0.37l-0.01,0.37l-0.01,0.38l-0.08,0.74l-0.09,0.74l-0.11,0.74l-0.11,0.74l-0.13,0.74l-0.15,0.74l-0.15,0.73l-0.17,0.74l-0.18,0.73l-0.19,0.73l-0.2,0.72l-0.21,0.72l-0.23,0.72l-0.24,0.71l-0.25,0.71l-0.27,0.71l-0.27,0.7l-0.29,0.69l-0.3,0.69l-0.32,0.69l-0.32,0.67l-0.34,0.68l-0.35,0.66l-0.36,0.66l-0.38,0.65l-0.38,0.64l-0.4,0.63l-0.42,0.63l-0.42,0.62l-0.44,0.6l-0.45,0.6l-0.46,0.59l-0.48,0.58l-0.48,0.57l-0.5,0.56l-0.52,0.55l-0.52,0.54l-0.54,0.53l-0.55,0.51l-0.56,0.5l-0.49,0.43l-0.5,0.41l-0.51,0.39l-0.51,0.39l-0.52,0.38l-0.53,0.36l-0.53,0.36l-0.54,0.34l-0.55,0.33l-0.55,0.32l-0.56,0.31l-0.57,0.3l-0.57,0.29l-0.58,0.27l-0.58,0.27l-0.59,0.26l-0.59,0.24l-0.6,0.24l-0.6,0.22l-0.6,0.21l-0.61,0.21l-0.61,0.19l-0.62,0.19l-0.62,0.17l-0.62,0.16l-0.62,0.16l-0.63,0.14l-0.63,0.13l-0.63,0.13l-0.63,0.11l-0.64,0.11l-0.63,0.09l-0.64,0.09l-0.64,0.07l-0.64,0.07l-0.64,0.06l-0.64,0.05l-0.64,0.04l-0.63,0.03l-0.64,0.02l-0.63,0.03l-0.62,0.01l-0.63,0.01l-0.63,0l-0.62,-0.01l-0.63,-0.03l-0.63,-0.02l-0.63,-0.04l-0.63,-0.05l-0.62,-0.06l-0.63,-0.07l-0.62,-0.08l-0.63,-0.08l-0.62,-0.1l-0.62,-0.11l-0.62,-0.12l-0.62,-0.13l-0.61,-0.13l-0.61,-0.15l-0.61,-0.16l-0.6,-0.17l-0.6,-0.18l-0.6,-0.19l-0.59,-0.21l-0.59,-0.21l-0.59,-0.22l-0.58,-0.24l-0.57,-0.25l-0.58,-0.25l-0.56,-0.27l-0.56,-0.29l-0.55,-0.29l-0.55,-0.3l-0.54,-0.32l-0.54,-0.33l-0.53,-0.34l-0.52,-0.35l-0.51,-0.37l-0.51,-0.37l-0.5,-0.39l-0.55,-0.45l-0.54,-0.46l-0.53,-0.47l-0.52,-0.48l-0.5,-0.49l-0.49,-0.5l-0.49,-0.51l-0.47,-0.52l-0.46,-0.53l-0.45,-0.54l-0.43,-0.55l-0.43,-0.56l-0.41,-0.57l-0.41,-0.57l-0.39,-0.58l-0.38,-0.59l-0.37,-0.6l-0.36,-0.61l-0.35,-0.61l-0.34,-0.62l-0.33,-0.62l-0.32,-0.63l-0.31,-0.63l-0.3,-0.64l-0.28,-0.65l-0.28,-0.65l-0.27,-0.65l-0.26,-0.66l-0.24,-0.66l-0.24,-0.67l-0.23,-0.67l-0.21,-0.67l-0.21,-0.68l-0.2,-0.67l-0.19,-0.68l-0.18,-0.68l-0.17,-0.69l-0.16,-0.68l-0.15,-0.68l-0.15,-0.69l-0.11,-0.54l-0.11,-0.54l-0.11,-0.54l-0.09,-0.55l-0.08,-0.55l-0.08,-0.54l-0.07,-0.55l-0.06,-0.56l-0.05,-0.55l-0.04,-0.55l-0.04,-0.56l-0.02,-0.55l-0.02,-0.56l0,-0.55l0,-0.56l0.01,-0.55l0.02,-0.56l0.03,-0.55l0.04,-0.55l0.05,-0.55l0.06,-0.56l0.06,-0.55l0.08,-0.54l0.09,-0.55l0.09,-0.55l0.11,-0.54l0.12,-0.54l0.12,-0.54l0.14,-0.53l0.15,-0.54l0.15,-0.53l0.17,-0.53l0.18,-0.52l0.18,-0.52l0.2,-0.52l0.21,-0.51l0.22,-0.51l0.23,-0.5l0.24,-0.51l0.25,-0.49l0.24,-0.12l0.25,-0.12l0.25,-0.12l0.25,-0.12l0.25,-0.12l0.25,-0.12l0.25,-0.12l0.25,-0.12l0.24,-0.12l0.25,-0.12l0.25,-0.11l0.25,-0.12l0.25,-0.12l0.25,-0.12l0.25,-0.11l0.25,-0.12l0.25,-0.12l0.25,-0.11l0.25,-0.12l0.25,-0.12l0.25,-0.11l0.25,-0.12l0.26,-0.12l0.25,-0.11l0.25,-0.12l0.25,-0.11l0.25,-0.12l0.25,-0.12l0.25,-0.11l0.5,-0.23l0.25,-0.12l0.25,-0.11l0.25,-0.12l0.25,-0.12l0.25,-0.11l0.25,-0.12l0.26,-0.11l0.25,-0.12l0.25,-0.12l0.09,-0.1l0.09,-0.11l0.07,-0.11l0.07,-0.11l0.05,-0.11l0.05,-0.11l0.04,-0.11l0.03,-0.11l0.02,-0.12l0.01,-0.11l0.01,-0.11l0,-0.12l-0.01,-0.11l-0.01,-0.12l-0.02,-0.12l-0.03,-0.11l-0.03,-0.12l-0.04,-0.11l-0.04,-0.12l-0.05,-0.11l-0.05,-0.12l-0.05,-0.11l-0.06,-0.12l-0.06,-0.11l-0.07,-0.11l-0.07,-0.11l-0.06,-0.12l-0.08,-0.1l-0.07,-0.11l-0.07,-0.11l-0.08,-0.11l-0.07,-0.1l-0.08,-0.1l-0.07,-0.11l-0.08,-0.1l-0.07,-0.09l-0.08,-0.1l-0.07,-0.09l-0.07,-0.1l-0.07,-0.09l0.48,-0.26l0.48,-0.25l0.49,-0.24l0.49,-0.23l0.49,-0.23l0.5,-0.22l0.5,-0.2l0.5,-0.2l0.51,-0.2l0.5,-0.18l0.52,-0.18l0.51,-0.17l0.51,-0.16l0.52,-0.15l0.52,-0.15l0.53,-0.14l0.52,-0.13l0.53,-0.13l0.53,-0.12l0.53,-0.11l0.53,-0.11l0.53,-0.1l0.54,-0.09l0.53,-0.09l0.54,-0.08l0.54,-0.08l0.54,-0.07l0.54,-0.07l0.54,-0.06l0.54,-0.05l0.54,-0.05l0.54,-0.04l0.54,-0.04l0.54,-0.04l0.54,-0.03l0.55,-0.02l0.54,-0.02l0.54,-0.02l0.54,-0.01l0.54,-0.01l0.5,0l0.49,0l0.5,0l0.5,0zm-20.9,27.65l-1.21,0.48l-1.1,0.64l-1,0.8l-0.88,0.93l-0.75,1.03l-0.61,1.13l-0.45,1.2l-0.29,1.24l-0.12,1.27l0.07,1.28l0.27,1.27l0.37,1.14l0.52,1.06l0.65,0.98l0.78,0.89l0.88,0.79l0.98,0.68l1.04,0.56l1.11,0.42l1.15,0.28l1.18,0.12l1.19,-0.04l1.32,-0.19l1.27,-0.39l1.19,-0.57l1.09,-0.73l0.99,-0.88l0.86,-1l0.72,-1.11l0.55,-1.2l0.38,-1.26l0.18,-1.31l-0.03,-1.34l-0.21,-1.56l-0.49,-1.47l-0.74,-1.34l-0.95,-1.2l-1.14,-1.04l-1.29,-0.85l-1.4,-0.65l-1.49,-0.41l-1.53,-0.16l-1.54,0.11l-1.52,0.4z"/>
  <path id="cGui0wrKf" d="m548.19,189.81l0.78,0.02l0.77,0.03l0.78,0.04l0.77,0.04l0.78,0.06l0.77,0.07l0.77,0.08l0.77,0.08l0.77,0.11l0.76,0.11l0.76,0.12l0.76,0.14l0.76,0.15l0.75,0.16l0.75,0.18l0.75,0.18l0.74,0.21l0.73,0.22l0.74,0.23l0.72,0.25l0.72,0.26l0.72,0.28l0.71,0.3l0.7,0.31l0.7,0.34l0.69,0.34l0.69,0.37l0.67,0.38l0.67,0.41l0.37,0.22l0.35,0.23l0.36,0.24l0.34,0.24l0.34,0.26l0.34,0.26l0.33,0.26l0.32,0.28l0.32,0.27l0.31,0.29l0.31,0.29l0.3,0.3l0.29,0.3l0.29,0.31l0.28,0.32l0.28,0.32l0.26,0.33l0.27,0.33l0.25,0.33l0.25,0.34l0.25,0.35l0.24,0.35l0.23,0.36l0.22,0.35l0.22,0.37l0.21,0.37l0.2,0.37l0.2,0.37l0.19,0.38l0.18,0.39l0.17,0.38l0.17,0.39l0.16,0.39l0.16,0.4l0.14,0.4l0.14,0.4l0.13,0.4l0.12,0.41l0.12,0.41l0.11,0.41l0.17,0.61l0.16,0.61l0.14,0.61l0.13,0.62l0.12,0.62l0.1,0.62l0.09,0.62l0.08,0.62l0.06,0.62l0.05,0.62l0.04,0.63l0.03,0.62l0.01,0.63l0.01,0.62l-0.01,0.63l-0.02,0.63l-0.03,0.62l-0.04,0.63l-0.06,0.62l-0.06,0.63l-0.07,0.62l-0.08,0.62l-0.09,0.63l-0.1,0.62l-0.11,0.62l-0.12,0.62l-0.12,0.61l-0.14,0.62l-0.14,0.61l-0.15,0.62l-0.16,0.61l-0.16,0.6l-0.17,0.61l-0.18,0.6l-0.18,0.6l-0.2,0.6l-0.19,0.6l-0.2,0.59l-0.21,0.59l-0.22,0.58l-0.22,0.58l-0.23,0.58l-0.24,0.57l-0.24,0.57l-0.26,0.57l-0.26,0.56l-0.28,0.56l-0.28,0.55l-0.29,0.56l-0.3,0.54l-0.31,0.55l-0.31,0.53l-0.33,0.53l-0.33,0.53l-0.34,0.52l-0.35,0.52l-0.36,0.51l-0.37,0.5l-0.38,0.5l-0.38,0.49l-0.39,0.48l-0.4,0.47l-0.41,0.47l-0.42,0.46l-0.43,0.45l-0.43,0.44l-0.45,0.44l-0.45,0.42l-0.46,0.42l-0.47,0.41l-0.47,0.39l-0.49,0.39l-0.49,0.38l-0.5,0.37l-0.51,0.35l-0.52,0.35l-0.52,0.34l-0.54,0.32l-0.54,0.31l-0.55,0.3l-0.62,0.33l-0.62,0.31l-0.63,0.3l-0.64,0.28l-0.64,0.27l-0.65,0.25l-0.65,0.24l-0.66,0.23l-0.66,0.21l-0.66,0.2l-0.67,0.18l-0.67,0.17l-0.68,0.16l-0.68,0.15l-0.68,0.13l-0.68,0.12l-0.69,0.11l-0.69,0.09l-0.69,0.08l-0.69,0.08l-0.69,0.06l-0.7,0.05l-0.69,0.03l-0.7,0.03l-0.7,0.02l-0.7,0l-0.69,0l-0.7,-0.02l-0.7,-0.03l-0.7,-0.03l-0.69,-0.05l-0.7,-0.05l-0.69,-0.07l-0.7,-0.07l-0.69,-0.08l-0.69,-0.09l-0.68,-0.1l-0.69,-0.11l-0.68,-0.12l-0.68,-0.12l-0.57,-0.12l-0.56,-0.12l-0.57,-0.14l-0.56,-0.14l-0.56,-0.15l-0.56,-0.17l-0.56,-0.17l-0.55,-0.18l-0.55,-0.19l-0.55,-0.2l-0.54,-0.2l-0.54,-0.22l-0.54,-0.23l-0.53,-0.23l-0.53,-0.24l-0.52,-0.26l-0.52,-0.26l-0.52,-0.27l-0.51,-0.27l-0.5,-0.29l-0.5,-0.29l-0.5,-0.31l-0.49,-0.31l-0.48,-0.32l-0.48,-0.33l-0.47,-0.34l-0.47,-0.34l-0.46,-0.35l-0.46,-0.37l-0.44,-0.36l-0.44,-0.38l-0.44,-0.39l-0.43,-0.39l-0.41,-0.4l-0.42,-0.41l-0.4,-0.42l-0.4,-0.42l-0.39,-0.44l-0.38,-0.44l-0.37,-0.45l-0.34,-0.41l-0.33,-0.42l-0.33,-0.42l-0.32,-0.43l-0.31,-0.43l-0.31,-0.44l-0.29,-0.44l-0.3,-0.45l-0.28,-0.45l-0.28,-0.45l-0.28,-0.46l-0.26,-0.46l-0.27,-0.46l-0.25,-0.47l-0.25,-0.47l-0.24,-0.48l-0.23,-0.48l-0.23,-0.48l-0.23,-0.48l-0.21,-0.49l-0.21,-0.49l-0.21,-0.49l-0.2,-0.5l-0.19,-0.49l-0.19,-0.5l-0.18,-0.51l-0.17,-0.5l-0.17,-0.51l-0.16,-0.51l-0.16,-0.51l-0.15,-0.51l-0.14,-0.51l-0.14,-0.52l-0.13,-0.51l-0.13,-0.52l-0.12,-0.52l-0.11,-0.52l-0.11,-0.52l-0.11,-0.53l-0.09,-0.52l-0.08,-0.41l-0.07,-0.4l-0.06,-0.41l-0.06,-0.41l-0.05,-0.41l-0.04,-0.41l-0.03,-0.41l-0.03,-0.41l-0.02,-0.41l-0.02,-0.41l0,-0.41l-0.01,-0.41l0.01,-0.41l0.01,-0.41l0.02,-0.41l0.02,-0.41l0.03,-0.42l0.04,-0.41l0.04,-0.41l0.04,-0.4l0.05,-0.41l0.06,-0.41l0.06,-0.41l0.07,-0.41l0.07,-0.4l0.07,-0.41l0.08,-0.4l0.09,-0.41l0.09,-0.4l0.09,-0.4l0.1,-0.4l0.1,-0.4l0.1,-0.4l0.11,-0.4l0.12,-0.4l0.11,-0.39l0.12,-0.39l0.13,-0.4l0.12,-0.39l0.13,-0.38l0.12,-0.33l0.12,-0.32l0.12,-0.33l0.13,-0.32l0.13,-0.32l0.14,-0.32l0.15,-0.32l0.15,-0.31l0.15,-0.31l0.16,-0.32l0.16,-0.3l0.17,-0.31l0.18,-0.3l0.18,-0.3l0.18,-0.3l0.19,-0.29l0.2,-0.29l0.2,-0.28l0.2,-0.28l0.21,-0.28l0.22,-0.27l0.22,-0.27l0.23,-0.26l0.23,-0.26l0.23,-0.25l0.25,-0.25l0.25,-0.24l0.25,-0.23l0.26,-0.23l0.26,-0.22l0.27,-0.22l0.28,-0.21l0.28,-0.2l0.28,-0.2l0.3,-0.19l0.29,-0.18l0.31,-0.17l0.3,-0.17l0.32,-0.16l0.32,-0.15l0.52,-0.32l0.53,-0.31l0.53,-0.31l0.54,-0.31l0.53,-0.3l0.54,-0.29l0.55,-0.28l0.54,-0.28l0.55,-0.28l0.56,-0.27l0.55,-0.26l0.56,-0.25l0.56,-0.25l0.56,-0.24l0.57,-0.24l0.57,-0.23l0.57,-0.22l0.57,-0.22l0.58,-0.21l0.58,-0.2l0.58,-0.19l0.58,-0.19l0.59,-0.18l0.59,-0.17l0.59,-0.17l0.59,-0.15l0.6,-0.15l0.59,-0.14l0.6,-0.14l0.6,-0.12l0.6,-0.12l0.61,-0.11l0.6,-0.1l0.61,-0.1l0.61,-0.08l0.61,-0.08l0.61,-0.06l0.61,-0.06l0.61,-0.05l0.62,-0.04l0.76,-0.05l0.77,-0.05l0.76,-0.05l0.77,-0.03l0.77,-0.04l0.77,-0.02l0.78,-0.02l0.77,-0.01l0.78,-0.01l0.77,0.01l0.78,0.01zm-28.86,27.68l-1.19,0.47l-1.1,0.65l-0.99,0.79l-0.87,0.92l-0.74,1.03l-0.6,1.12l-0.46,1.19l-0.28,1.24l-0.12,1.26l0.07,1.27l0.26,1.26l0.39,1.19l0.54,1.1l0.7,1.02l0.82,0.92l0.94,0.8l1.03,0.68l1.11,0.55l1.17,0.39l1.21,0.24l1.23,0.07l1.24,-0.11l1.37,-0.28l1.3,-0.49l1.19,-0.69l1.08,-0.85l0.95,-1l0.8,-1.13l0.63,-1.23l0.45,-1.3l0.25,-1.35l0.03,-1.39l-0.2,-1.38l-0.38,-1.42l-0.61,-1.31l-0.81,-1.19l-0.99,-1.04l-1.13,-0.89l-1.26,-0.71l-1.34,-0.53l-1.4,-0.32l-1.44,-0.09l-1.44,0.14l-1.41,0.4z"/>
  <path id="a43vmYTI4" d="m427.49,222.79c0.54,1.86 -1.57,3.75 -3.36,2.98c-2.01,-0.57 -2.32,-3.63 -0.48,-4.61c1.4,-0.94 3.55,-0.04 3.84,1.63z"/>
  <path id="b15QygL4Rz" d="m528.78,223.91c-0.32,1.87 -2.91,2.7 -4.25,1.35c-1.26,-1.07 -1.05,-3.25 0.37,-4.08c1.78,-1.28 4.47,0.62 3.88,2.73z"/>
  <path id="a1OycJPAP" d="m189.5,112.8c3.35,0.06 5.92,3.09 6.11,6.31c-3.69,-1.42 -7.24,-3.21 -10.97,-4.49c1.01,-1.43 3.17,-1.79 4.86,-1.82z"/>
  <path id="c59HP7ori" d="m182.62,117.15c4.02,1.67 8.01,3.47 12.07,5.05c0.01,0.05 0.05,0.41 0.05,0.46c-9.09,25.38 -18.24,50.74 -27.2,76.15c-0.04,0.02 -0.39,0.12 -0.43,0.13c-6.95,-2.99 -13.92,-5.92 -20.89,-8.84c7.33,-15.07 14.96,-30.03 22.39,-45.06c4.7,-9.28 9.22,-18.69 14.01,-27.89z"/>
  <path id="a2dKJiQL4W" d="m545.11,182.1l0.8,0.03l0.81,0.03l0.8,0.05l0.8,0.05l0.8,0.06l0.8,0.06l0.8,0.08l0.79,0.09l0.8,0.09l0.79,0.1l0.72,0.11l0.71,0.12l0.71,0.14l0.71,0.14l0.7,0.15l0.7,0.16l0.7,0.17l0.7,0.18l0.69,0.19l0.69,0.19l0.7,0.2l0.68,0.21l0.69,0.21l0.69,0.21l0.68,0.23l0.69,0.22l0.68,0.23l0.68,0.23l0.68,0.24l0.68,0.24l0.68,0.24l0.68,0.24l0.68,0.24l0.68,0.24l0.68,0.24l0.68,0.24l0.69,0.23l0.68,0.24l0.68,0.23l0.68,0.23l0.69,0.23l0.68,0.22l0.69,0.22l0.69,0.21l0.69,0.21l0.69,0.2l0.69,0.19l0.7,0.19l0.7,0.17l0.7,0.17l0.32,0.08l0.31,0.08l0.32,0.08l0.32,0.08l0.32,0.07l0.32,0.07l0.32,0.07l0.32,0.07l0.33,0.07l0.32,0.07l0.32,0.06l0.32,0.06l0.32,0.07l0.33,0.06l0.32,0.05l0.32,0.06l0.33,0.06l0.32,0.05l0.32,0.05l0.33,0.05l0.32,0.05l0.33,0.04l0.32,0.05l0.33,0.04l0.32,0.04l0.33,0.04l0.33,0.04l0.32,0.03l0.33,0.03l0.32,0.04l0.33,0.02l0.33,0.03l0.33,0.03l0.32,0.02l0.33,0.02l0.33,0.02l0.33,0.02l0.33,0.01l0.32,0.02l0.33,0.01l0.09,0l0.09,0.01l0.08,0.02l0.08,0.02l0.09,0.02l0.08,0.03l0.08,0.03l0.07,0.03l0.08,0.04l0.07,0.04l0.07,0.04l0.07,0.05l0.07,0.05l0.07,0.05l0.06,0.05l0.07,0.06l0.06,0.06l0.06,0.06l0.05,0.06l0.05,0.07l0.06,0.07l0.04,0.07l0.05,0.07l0.04,0.07l0.05,0.08l0.03,0.07l0.04,0.08l0.03,0.08l0.03,0.08l0.03,0.08l0.02,0.08l0.03,0.09l0.01,0.08l0.02,0.08l0.01,0.09l0.01,0.08l0,0.09l0,0.08l0,0.09l0,0.08l-0.01,0.25l0,0.26l0,0.25l0,0.26l0,0.25l0,0.26l0,0.25l0,0.25l0,0.26l0,0.25l0.01,0.26l0,0.25l0,0.25l0,0.26l0.01,0.25l0,0.26l0,0.25l0,0.26l0,0.25l0.01,0.25l0,0.26l0,0.25l0,0.26l0,0.25l0,0.25l0,0.26l0,0.25l-0.01,0.26l0,0.25l0,0.25l-0.01,0.26l-0.01,0.25l0,0.26l-0.01,0.25l-0.01,0.25l-0.01,0.26l-0.01,0.25l-0.01,0.25l-0.02,0.26l-0.01,0.25l-0.04,0.15l-0.05,0.14l-0.05,0.14l-0.06,0.12l-0.07,0.12l-0.07,0.11l-0.08,0.1l-0.08,0.09l-0.09,0.09l-0.1,0.08l-0.09,0.07l-0.11,0.07l-0.1,0.07l-0.12,0.05l-0.11,0.06l-0.12,0.05l-0.12,0.04l-0.12,0.04l-0.13,0.04l-0.13,0.04l-0.13,0.03l-0.13,0.03l-0.14,0.03l-0.13,0.02l-0.14,0.03l-0.13,0.02l-0.14,0.03l-0.14,0.02l-0.13,0.03l-0.14,0.03l-0.13,0.02l-0.14,0.03l-0.13,0.03l-0.13,0.03l-0.13,0.04l-0.13,0.03l-0.12,0.05l-0.12,0.04l-0.12,0.05l-0.12,0.05l-0.15,0.04l-0.16,0.05l-0.15,0.06l-0.15,0.06l-0.14,0.06l-0.14,0.07l-0.14,0.07l-0.14,0.08l-0.13,0.09l-0.13,0.08l-0.13,0.09l-0.12,0.1l-0.12,0.1l-0.11,0.1l-0.12,0.11l-0.11,0.11l-0.1,0.11l-0.1,0.12l-0.1,0.12l-0.1,0.13l-0.09,0.12l-0.09,0.13l-0.08,0.13l-0.08,0.14l-0.08,0.13l-0.07,0.14l-0.07,0.14l-0.07,0.15l-0.06,0.14l-0.06,0.15l-0.05,0.15l-0.05,0.15l-0.05,0.15l-0.04,0.15l-0.04,0.15l-0.03,0.16l-0.03,0.15l-0.02,0.16l-0.03,0.16l-0.01,0.15l-0.03,0.42l-0.01,0.41l-0.02,0.42l-0.01,0.42l-0.01,0.42l-0.01,0.41l0,0.42l0,0.42l0,0.42l0,0.41l0,0.42l0.01,0.42l0,0.42l0.01,0.42l0.01,0.42l0,0.41l0.01,0.42l0,0.42l0,0.42l0.01,0.42l0,0.42l0,0.41l-0.01,0.42l0,0.42l-0.01,0.42l-0.01,0.41l-0.02,0.42l-0.02,0.42l-0.02,0.41l-0.03,0.42l-0.03,0.41l-0.03,0.42l-0.04,0.41l-0.05,0.42l-0.05,0.41l-0.06,0.41l-0.07,0.42l-0.07,0.41l-0.08,0.41l-0.08,0.41l-0.13,0.6l-0.13,0.59l-0.15,0.6l-0.15,0.59l-0.16,0.58l-0.18,0.59l-0.18,0.58l-0.19,0.58l-0.2,0.57l-0.21,0.58l-0.22,0.57l-0.22,0.56l-0.24,0.56l-0.24,0.56l-0.25,0.56l-0.26,0.55l-0.27,0.54l-0.28,0.55l-0.28,0.54l-0.3,0.53l-0.3,0.53l-0.31,0.53l-0.31,0.52l-0.33,0.52l-0.33,0.51l-0.34,0.5l-0.34,0.51l-0.36,0.49l-0.36,0.5l-0.36,0.48l-0.38,0.48l-0.38,0.48l-0.39,0.47l-0.39,0.46l-0.4,0.46l-0.41,0.46l-0.42,0.44l-0.42,0.44l-0.42,0.44l-0.44,0.43l-0.49,0.48l-0.49,0.48l-0.51,0.47l-0.51,0.47l-0.51,0.46l-0.53,0.45l-0.53,0.44l-0.53,0.43l-0.55,0.43l-0.54,0.42l-0.56,0.41l-0.56,0.41l-0.57,0.39l-0.57,0.39l-0.58,0.38l-0.58,0.37l-0.59,0.36l-0.59,0.35l-0.6,0.34l-0.61,0.33l-0.6,0.33l-0.62,0.31l-0.62,0.31l-0.62,0.3l-0.63,0.28l-0.63,0.28l-0.64,0.26l-0.64,0.26l-0.64,0.24l-0.65,0.24l-0.65,0.22l-0.66,0.22l-0.65,0.2l-0.67,0.19l-0.66,0.19l-0.67,0.17l-0.67,0.15l-0.68,0.15l-0.68,0.14l-0.68,0.12l-0.77,0.14l-0.78,0.12l-0.77,0.11l-0.78,0.1l-0.78,0.08l-0.78,0.07l-0.78,0.05l-0.78,0.04l-0.79,0.03l-0.78,0.01l-0.78,0l-0.79,-0.01l-0.78,-0.03l-0.78,-0.04l-0.78,-0.06l-0.78,-0.07l-0.78,-0.08l-0.78,-0.1l-0.77,-0.1l-0.78,-0.13l-0.77,-0.13l-0.77,-0.15l-0.77,-0.16l-0.76,-0.18l-0.76,-0.19l-0.76,-0.2l-0.75,-0.21l-0.75,-0.23l-0.74,-0.24l-0.75,-0.26l-0.73,-0.26l-0.73,-0.28l-0.73,-0.29l-0.72,-0.31l-0.72,-0.31l-0.71,-0.33l-0.71,-0.35l-0.69,-0.35l-0.7,-0.37l-0.68,-0.38l-0.5,-0.28l-0.5,-0.3l-0.49,-0.3l-0.49,-0.3l-0.49,-0.32l-0.47,-0.32l-0.48,-0.33l-0.47,-0.33l-0.46,-0.34l-0.46,-0.35l-0.45,-0.36l-0.45,-0.36l-0.44,-0.37l-0.44,-0.37l-0.43,-0.39l-0.43,-0.38l-0.42,-0.4l-0.42,-0.4l-0.41,-0.4l-0.4,-0.41l-0.4,-0.42l-0.39,-0.42l-0.39,-0.43l-0.38,-0.43l-0.37,-0.44l-0.37,-0.44l-0.36,-0.45l-0.35,-0.46l-0.35,-0.46l-0.34,-0.46l-0.34,-0.47l-0.33,-0.47l-0.32,-0.48l-0.31,-0.48l-0.31,-0.49l-0.3,-0.49l-0.3,-0.5l-0.28,-0.5l-0.28,-0.5l-0.28,-0.51l-0.35,-0.64l-0.34,-0.65l-0.33,-0.66l-0.33,-0.66l-0.31,-0.66l-0.31,-0.67l-0.3,-0.67l-0.28,-0.68l-0.28,-0.68l-0.27,-0.68l-0.26,-0.69l-0.25,-0.69l-0.24,-0.69l-0.23,-0.7l-0.23,-0.7l-0.21,-0.7l-0.2,-0.71l-0.2,-0.7l-0.18,-0.71l-0.18,-0.72l-0.17,-0.71l-0.15,-0.72l-0.15,-0.72l-0.14,-0.72l-0.13,-0.72l-0.12,-0.73l-0.1,-0.72l-0.1,-0.73l-0.1,-0.73l-0.08,-0.73l-0.07,-0.73l-0.06,-0.73l-0.05,-0.74l-0.05,-0.73l-0.03,-0.73l-0.02,-0.74l-0.02,-0.73l0,-0.74l0,-0.73l0.02,-0.74l-0.01,-0.16l-0.01,-0.16l-0.01,-0.16l0,-0.17l-0.01,-0.17l0,-0.17l0,-0.17l0.01,-0.17l0,-0.17l0,-0.17l0.01,-0.18l0,-0.17l0,-0.17l0,-0.18l0,-0.17l0,-0.18l0,-0.17l-0.01,-0.17l-0.01,-0.17l-0.01,-0.17l-0.02,-0.17l-0.02,-0.17l-0.02,-0.16l-0.03,-0.17l-0.03,-0.16l-0.04,-0.16l-0.04,-0.16l-0.05,-0.15l-0.06,-0.16l-0.06,-0.14l-0.07,-0.15l-0.08,-0.14l-0.08,-0.14l-0.1,-0.14l-0.1,-0.13l-0.11,-0.13l-0.11,-0.13l-0.13,-0.12l-0.14,-0.11l-0.15,-0.12l-0.18,-0.12l-0.19,-0.11l-0.18,-0.1l-0.2,-0.11l-0.19,-0.09l-0.2,-0.09l-0.2,-0.08l-0.21,-0.08l-0.2,-0.07l-0.21,-0.06l-0.21,-0.06l-0.21,-0.05l-0.21,-0.05l-0.22,-0.04l-0.22,-0.04l-0.21,-0.03l-0.22,-0.02l-0.22,-0.02l-0.22,-0.01l-0.22,-0.01l-0.22,-0.01l-0.22,0.01l-0.22,0l-0.22,0.02l-0.22,0.01l-0.22,0.03l-0.22,0.03l-0.22,0.03l-0.22,0.04l-0.21,0.04l-0.22,0.05l-0.21,0.05l-0.21,0.05l-0.21,0.07l-0.21,0.06l-0.2,0.07l-0.21,0.08l-0.2,0.08l-0.19,0.08l-0.2,0.09l-0.18,0.1l-0.17,0.11l-0.15,0.11l-0.15,0.12l-0.14,0.13l-0.13,0.13l-0.12,0.13l-0.1,0.14l-0.1,0.15l-0.1,0.15l-0.08,0.16l-0.08,0.15l-0.07,0.17l-0.06,0.16l-0.05,0.17l-0.05,0.17l-0.04,0.18l-0.04,0.17l-0.03,0.18l-0.03,0.19l-0.02,0.18l-0.02,0.18l-0.02,0.19l-0.01,0.19l-0.01,0.19l-0.01,0.19l0,0.19l0,0.19l0,0.19l0,0.19l0,0.19l0.01,0.19l0,0.18l0,0.19l0,0.18l0.01,0.19l0,0.18l-0.01,0.18l0,0.18l0,0.17l0.01,0.75l0,0.75l-0.01,0.75l-0.01,0.75l-0.03,0.74l-0.04,0.75l-0.04,0.75l-0.06,0.75l-0.06,0.74l-0.08,0.75l-0.09,0.74l-0.09,0.74l-0.11,0.75l-0.11,0.74l-0.13,0.73l-0.13,0.74l-0.14,0.73l-0.16,0.74l-0.16,0.73l-0.17,0.73l-0.19,0.72l-0.19,0.72l-0.2,0.72l-0.21,0.72l-0.23,0.72l-0.23,0.71l-0.24,0.71l-0.25,0.7l-0.26,0.7l-0.27,0.7l-0.28,0.7l-0.29,0.69l-0.3,0.68l-0.3,0.69l-0.32,0.67l-0.33,0.68l-0.34,0.67l-0.34,0.66l-0.36,0.66l-0.36,0.65l-0.29,0.53l-0.3,0.53l-0.31,0.52l-0.32,0.51l-0.32,0.51l-0.33,0.5l-0.34,0.5l-0.35,0.5l-0.35,0.49l-0.36,0.48l-0.37,0.48l-0.37,0.47l-0.38,0.47l-0.39,0.46l-0.4,0.45l-0.4,0.45l-0.41,0.44l-0.42,0.44l-0.42,0.43l-0.43,0.42l-0.43,0.42l-0.44,0.41l-0.45,0.41l-0.45,0.4l-0.46,0.39l-0.47,0.38l-0.47,0.38l-0.47,0.37l-0.48,0.36l-0.49,0.36l-0.49,0.35l-0.5,0.34l-0.5,0.33l-0.51,0.32l-0.51,0.32l-0.52,0.31l-0.52,0.3l-0.53,0.3l-0.53,0.28l-0.54,0.28l-0.62,0.32l-0.62,0.3l-0.63,0.29l-0.64,0.29l-0.64,0.27l-0.64,0.27l-0.64,0.25l-0.66,0.25l-0.65,0.23l-0.66,0.23l-0.66,0.21l-0.66,0.21l-0.67,0.19l-0.67,0.19l-0.67,0.17l-0.68,0.17l-0.68,0.15l-0.68,0.14l-0.68,0.14l-0.68,0.12l-0.69,0.11l-0.69,0.1l-0.69,0.09l-0.69,0.08l-0.69,0.07l-0.69,0.06l-0.69,0.05l-0.7,0.03l-0.69,0.03l-0.7,0.02l-0.69,0l-0.7,-0.01l-0.69,-0.02l-0.7,-0.02l-0.69,-0.04l-0.69,-0.05l-0.7,-0.07l-0.69,-0.07l-0.69,-0.09l-0.69,-0.09l-0.7,-0.1l-0.71,-0.11l-0.7,-0.12l-0.7,-0.14l-0.69,-0.14l-0.7,-0.16l-0.69,-0.17l-0.68,-0.18l-0.69,-0.2l-0.68,-0.2l-0.67,-0.22l-0.68,-0.23l-0.67,-0.23l-0.66,-0.25l-0.66,-0.26l-0.66,-0.28l-0.65,-0.28l-0.65,-0.29l-0.64,-0.3l-0.64,-0.31l-0.63,-0.33l-0.63,-0.33l-0.62,-0.34l-0.62,-0.36l-0.61,-0.36l-0.61,-0.37l-0.6,-0.38l-0.6,-0.39l-0.58,-0.4l-0.59,-0.41l-0.57,-0.41l-0.57,-0.43l-0.57,-0.43l-0.55,-0.45l-0.55,-0.45l-0.55,-0.46l-0.53,-0.46l-0.53,-0.48l-0.52,-0.48l-0.52,-0.49l-0.56,-0.54l-0.55,-0.54l-0.54,-0.56l-0.54,-0.56l-0.52,-0.58l-0.51,-0.58l-0.51,-0.6l-0.49,-0.6l-0.48,-0.61l-0.47,-0.62l-0.46,-0.63l-0.44,-0.64l-0.44,-0.65l-0.42,-0.65l-0.41,-0.66l-0.4,-0.67l-0.39,-0.67l-0.37,-0.69l-0.36,-0.69l-0.35,-0.69l-0.33,-0.7l-0.32,-0.71l-0.31,-0.72l-0.29,-0.72l-0.28,-0.72l-0.26,-0.73l-0.25,-0.74l-0.23,-0.74l-0.22,-0.74l-0.21,-0.75l-0.18,-0.76l-0.17,-0.75l-0.16,-0.77l-0.14,-0.76l-0.12,-0.77l-0.1,-0.77l-0.09,-0.77l-0.07,-0.78l-0.06,-0.78l-0.03,-0.78l0,-0.25l0,-0.25l0,-0.26l0,-0.25l0,-0.25l0,-0.26l0,-0.25l0,-0.25l0,-0.26l0,-0.25l0,-0.25l0,-0.26l0.01,-0.25l0,-0.25l0,-0.26l0,-0.25l0,-0.25l0,-0.26l0,-0.25l0,-0.25l0,-0.26l0,-0.25l0,-0.25l0.01,-0.26l0,-0.25l0,-0.25l0,-0.26l0,-0.25l0,-0.25l-0.01,-0.26l0,-0.25l0,-0.25l0,-0.26l0,-0.25l0,-0.25l0,-0.26l-0.01,-0.25l0,-0.26l0,-0.25l0,-0.25l0,-0.11l-0.01,-0.11l0,-0.11l-0.01,-0.1l0,-0.11l-0.01,-0.11l-0.02,-0.11l-0.01,-0.1l-0.01,-0.11l-0.02,-0.11l-0.02,-0.1l-0.02,-0.11l-0.02,-0.1l-0.02,-0.11l-0.02,-0.1l-0.03,-0.11l-0.03,-0.1l-0.03,-0.1l-0.03,-0.1l-0.03,-0.11l-0.03,-0.1l-0.04,-0.1l-0.04,-0.1l-0.03,-0.1l-0.04,-0.1l-0.04,-0.1l-0.05,-0.1l-0.04,-0.1l-0.05,-0.1l-0.04,-0.09l-0.05,-0.1l-0.05,-0.09l-0.05,-0.1l-0.05,-0.09l-0.05,-0.1l-0.06,-0.09l-0.05,-0.09l-0.06,-0.1l-0.06,-0.09l-0.06,-0.09l0.28,-0.15l0.28,-0.14l0.27,-0.15l0.28,-0.15l0.28,-0.15l0.28,-0.15l0.28,-0.14l0.27,-0.15l0.28,-0.14l0.28,-0.15l0.28,-0.14l0.28,-0.14l0.28,-0.15l0.28,-0.14l0.28,-0.14l0.28,-0.14l0.28,-0.15l0.29,-0.14l0.28,-0.14l0.28,-0.14l0.28,-0.14l0.28,-0.13l0.29,-0.14l0.28,-0.14l0.28,-0.14l0.29,-0.13l0.28,-0.14l0.28,-0.14l0.29,-0.13l0.28,-0.14l0.29,-0.13l0.28,-0.14l0.29,-0.13l0.28,-0.13l0.29,-0.13l0.28,-0.14l0.29,-0.13l0.28,-0.13l0.29,-0.13l0.29,-0.13l-0.25,0.49l-0.24,0.51l-0.23,0.5l-0.22,0.51l-0.21,0.51l-0.2,0.52l-0.18,0.52l-0.18,0.52l-0.17,0.53l-0.15,0.53l-0.15,0.54l-0.14,0.53l-0.12,0.54l-0.12,0.54l-0.11,0.54l-0.09,0.55l-0.09,0.55l-0.08,0.54l-0.06,0.55l-0.06,0.56l-0.05,0.55l-0.04,0.55l-0.03,0.55l-0.02,0.56l-0.01,0.55l0,0.56l0,0.55l0.02,0.56l0.02,0.55l0.04,0.56l0.04,0.55l0.05,0.55l0.06,0.56l0.07,0.55l0.08,0.54l0.08,0.55l0.09,0.55l0.11,0.54l0.11,0.54l0.11,0.54l0.15,0.69l0.15,0.68l0.16,0.68l0.17,0.69l0.18,0.68l0.19,0.68l0.2,0.67l0.21,0.68l0.21,0.67l0.23,0.67l0.24,0.67l0.24,0.66l0.26,0.66l0.27,0.65l0.28,0.65l0.28,0.65l0.3,0.64l0.31,0.63l0.32,0.63l0.33,0.62l0.34,0.62l0.35,0.61l0.36,0.61l0.37,0.6l0.38,0.59l0.39,0.58l0.41,0.57l0.41,0.57l0.43,0.56l0.43,0.55l0.45,0.54l0.46,0.53l0.47,0.52l0.49,0.51l0.49,0.5l0.5,0.49l0.52,0.48l0.53,0.47l0.54,0.46l0.55,0.45l0.5,0.39l0.51,0.37l0.51,0.37l0.52,0.35l0.53,0.34l0.54,0.33l0.54,0.32l0.55,0.3l0.55,0.29l0.56,0.29l0.56,0.27l0.58,0.25l0.57,0.25l0.58,0.24l0.59,0.22l0.59,0.21l0.59,0.21l0.6,0.19l0.6,0.18l0.6,0.17l0.61,0.16l0.61,0.15l0.61,0.13l0.62,0.13l0.62,0.12l0.62,0.11l0.62,0.1l0.63,0.08l0.62,0.08l0.63,0.07l0.62,0.06l0.63,0.05l0.63,0.04l0.63,0.02l0.63,0.03l0.62,0.01l0.63,0l0.63,-0.01l0.62,-0.01l0.63,-0.03l0.64,-0.02l0.63,-0.03l0.64,-0.04l0.64,-0.05l0.64,-0.06l0.64,-0.07l0.64,-0.07l0.64,-0.09l0.63,-0.09l0.64,-0.11l0.63,-0.11l0.63,-0.13l0.63,-0.13l0.63,-0.14l0.62,-0.16l0.62,-0.16l0.62,-0.17l0.62,-0.19l0.61,-0.19l0.61,-0.21l0.6,-0.21l0.6,-0.22l0.6,-0.24l0.59,-0.24l0.59,-0.26l0.58,-0.27l0.58,-0.27l0.57,-0.29l0.57,-0.3l0.56,-0.31l0.55,-0.32l0.55,-0.33l0.54,-0.34l0.53,-0.36l0.53,-0.36l0.52,-0.38l0.51,-0.39l0.51,-0.39l0.5,-0.41l0.49,-0.43l0.56,-0.5l0.55,-0.51l0.54,-0.53l0.52,-0.54l0.52,-0.55l0.5,-0.56l0.48,-0.57l0.48,-0.58l0.46,-0.59l0.45,-0.6l0.44,-0.6l0.42,-0.62l0.42,-0.63l0.4,-0.63l0.38,-0.64l0.38,-0.65l0.36,-0.66l0.35,-0.66l0.34,-0.68l0.32,-0.67l0.32,-0.69l0.3,-0.69l0.29,-0.69l0.27,-0.7l0.27,-0.71l0.25,-0.71l0.24,-0.71l0.23,-0.72l0.21,-0.72l0.2,-0.72l0.19,-0.73l0.18,-0.73l0.17,-0.74l0.15,-0.73l0.15,-0.74l0.13,-0.74l0.11,-0.74l0.11,-0.74l0.09,-0.74l0.08,-0.74l0.01,-0.38l0.01,-0.37l0,-0.37l0,-0.38l-0.01,-0.37l-0.01,-0.37l-0.01,-0.38l-0.02,-0.37l-0.02,-0.37l-0.03,-0.38l-0.03,-0.37l-0.04,-0.37l-0.04,-0.37l-0.04,-0.37l-0.05,-0.37l-0.05,-0.37l-0.06,-0.37l-0.05,-0.37l-0.07,-0.37l-0.07,-0.37l-0.07,-0.37l-0.07,-0.36l-0.08,-0.37l-0.08,-0.36l-0.09,-0.37l-0.09,-0.36l-0.09,-0.36l-0.1,-0.36l-0.1,-0.36l-0.11,-0.36l-0.11,-0.36l-0.11,-0.36l-0.11,-0.35l-0.12,-0.36l-0.13,-0.35l-0.12,-0.35l-0.14,-0.35l-0.13,-0.35l-0.14,-0.34l-0.14,-0.35l-0.1,-0.23l-0.1,-0.23l-0.11,-0.23l-0.11,-0.23l-0.11,-0.23l-0.11,-0.23l-0.12,-0.22l-0.12,-0.23l-0.12,-0.22l-0.12,-0.23l-0.13,-0.22l-0.13,-0.22l-0.13,-0.21l-0.14,-0.22l-0.14,-0.21l-0.14,-0.22l-0.14,-0.21l-0.15,-0.2l-0.15,-0.21l-0.15,-0.2l-0.16,-0.2l-0.16,-0.2l-0.16,-0.2l-0.17,-0.19l-0.16,-0.19l-0.17,-0.19l-0.18,-0.18l-0.18,-0.18l-0.18,-0.18l-0.18,-0.18l-0.19,-0.17l-0.19,-0.16l-0.19,-0.17l-0.2,-0.16l-0.2,-0.16l-0.2,-0.15l-0.21,-0.15l-0.21,-0.14l-0.21,-0.14l-0.22,-0.14l-0.31,-0.17l-0.31,-0.18l-0.31,-0.18l-0.31,-0.18l-0.31,-0.17l-0.31,-0.18l-0.31,-0.18l-0.31,-0.17l-0.31,-0.18l-0.31,-0.17l-0.32,-0.18l-0.31,-0.17l-0.31,-0.17l-0.31,-0.18l-0.32,-0.17l-0.31,-0.17l-0.32,-0.17l-0.31,-0.16l-0.32,-0.17l-0.32,-0.16l-0.32,-0.17l-0.31,-0.16l-0.32,-0.16l-0.32,-0.15l-0.33,-0.16l-0.32,-0.15l-0.32,-0.15l-0.33,-0.15l-0.32,-0.15l-0.33,-0.14l-0.33,-0.14l-0.32,-0.14l-0.33,-0.14l-0.34,-0.13l-0.33,-0.13l-0.33,-0.13l-0.34,-0.12l-0.33,-0.12l-0.34,-0.12l-0.34,-0.11l-0.48,-0.16l-0.48,-0.15l-0.47,-0.14l-0.49,-0.14l-0.48,-0.14l-0.48,-0.13l-0.48,-0.12l-0.49,-0.12l-0.49,-0.11l-0.48,-0.11l-0.49,-0.1l-0.49,-0.1l-0.49,-0.09l-0.5,-0.09l-0.49,-0.08l-0.49,-0.08l-0.5,-0.07l-0.49,-0.07l-0.5,-0.07l-0.49,-0.06l-0.5,-0.06l-0.5,-0.05l-0.5,-0.05l-0.49,-0.05l-0.5,-0.04l-0.5,-0.04l-0.5,-0.03l-0.5,-0.03l-0.5,-0.03l-0.5,-0.02l-0.5,-0.02l-0.5,-0.02l-0.5,-0.02l-0.5,-0.01l-0.5,-0.01l-0.5,-0.01l-0.5,0l-0.5,0l-0.49,0l-0.5,0l-0.54,0.01l-0.54,0.01l-0.54,0.02l-0.54,0.02l-0.55,0.02l-0.54,0.03l-0.54,0.04l-0.54,0.04l-0.54,0.04l-0.54,0.05l-0.54,0.05l-0.54,0.06l-0.54,0.07l-0.54,0.07l-0.54,0.08l-0.54,0.08l-0.53,0.09l-0.54,0.09l-0.53,0.1l-0.53,0.11l-0.53,0.11l-0.53,0.12l-0.53,0.13l-0.52,0.13l-0.53,0.14l-0.52,0.15l-0.52,0.15l-0.51,0.16l-0.51,0.17l-0.52,0.18l-0.5,0.18l-0.51,0.2l-0.5,0.2l-0.5,0.2l-0.5,0.22l-0.49,0.23l-0.49,0.23l-0.49,0.24l-0.48,0.25l-0.48,0.26l-0.14,-0.12l-0.14,-0.12l-0.13,-0.13l-0.13,-0.13l-0.12,-0.14l-0.12,-0.14l-0.11,-0.14l-0.1,-0.14l-0.1,-0.15l-0.09,-0.15l-0.1,-0.15l-0.08,-0.16l-0.08,-0.15l-0.08,-0.16l-0.08,-0.16l-0.07,-0.17l-0.07,-0.16l-0.06,-0.17l-0.06,-0.16l-0.06,-0.17l-0.06,-0.17l-0.06,-0.18l-0.05,-0.17l-0.05,-0.17l-0.05,-0.17l-0.05,-0.18l-0.05,-0.17l-0.05,-0.18l-0.05,-0.17l-0.04,-0.18l-0.05,-0.17l-0.05,-0.18l-0.04,-0.17l-0.05,-0.18l-0.05,-0.17l-0.05,-0.17l-0.05,-0.18l-0.05,-0.17l-0.06,-0.17l-0.05,-0.17l0.46,-0.16l0.46,-0.17l0.46,-0.17l0.46,-0.17l0.46,-0.17l0.47,-0.16l0.46,-0.17l0.46,-0.17l0.47,-0.16l0.46,-0.17l0.46,-0.16l0.47,-0.16l0.46,-0.16l0.47,-0.16l0.46,-0.16l0.47,-0.16l0.47,-0.15l0.47,-0.15l0.47,-0.15l0.46,-0.15l0.47,-0.15l0.48,-0.14l0.47,-0.14l0.47,-0.13l0.47,-0.13l0.48,-0.13l0.47,-0.13l0.48,-0.12l0.47,-0.12l0.48,-0.11l0.48,-0.11l0.48,-0.11l0.48,-0.1l0.48,-0.1l0.48,-0.09l0.49,-0.09l0.48,-0.08l0.49,-0.08l0.49,-0.07l0.49,-0.06l0.79,-0.1l0.8,-0.09l0.8,-0.08l0.8,-0.07l0.8,-0.06l0.8,-0.05l0.8,-0.05l0.8,-0.03l0.81,-0.03l0.8,-0.02l0.8,0l0.81,0l0.8,0l0.81,0.02l0.8,0.03l0.8,0.04l0.8,0.04l0.8,0.06l0.81,0.06l0.8,0.08l0.79,0.08l0.8,0.09l0.8,0.1l0.79,0.11l0.8,0.13l0.79,0.13l0.79,0.14l0.79,0.15l0.78,0.16l0.79,0.17l0.78,0.18l0.78,0.19l0.78,0.2l0.77,0.21l0.78,0.22l0.76,0.23l0.77,0.24l0.76,0.26l0.76,0.26l0.76,0.27l0.36,0.14l0.36,0.14l0.36,0.14l0.35,0.14l0.36,0.14l0.36,0.15l0.36,0.14l0.35,0.15l0.36,0.16l0.35,0.15l0.35,0.16l0.36,0.16l0.35,0.16l0.35,0.16l0.35,0.17l0.34,0.17l0.35,0.17l0.34,0.18l0.34,0.17l0.34,0.19l0.34,0.18l0.34,0.19l0.33,0.19l0.33,0.2l0.33,0.2l0.32,0.21l0.33,0.2l0.32,0.22l0.31,0.21l0.32,0.22l0.31,0.23l0.31,0.23l0.3,0.23l0.31,0.24l0.29,0.25l0.3,0.24l0.29,0.26l0.29,0.26l0.28,0.26l0.28,0.27l0.13,0.12l0.14,0.12l0.13,0.12l0.13,0.13l0.14,0.12l0.13,0.13l0.14,0.13l0.13,0.14l0.14,0.13l0.14,0.13l0.13,0.13l0.14,0.13l0.14,0.13l0.15,0.13l0.14,0.12l0.14,0.13l0.15,0.12l0.15,0.11l0.14,0.12l0.15,0.11l0.16,0.1l0.15,0.1l0.16,0.09l0.15,0.09l0.16,0.08l0.17,0.08l0.16,0.06l0.17,0.06l0.17,0.06l0.17,0.04l0.17,0.03l0.18,0.03l0.18,0.02l0.18,0l0.19,0l0.19,-0.02l0.19,-0.03l0.19,-0.03l0.2,-0.06l0.2,-0.06l0.27,-0.08l0.28,-0.07l0.27,-0.07l0.27,-0.07l0.28,-0.07l0.27,-0.07l0.28,-0.06l0.27,-0.07l0.28,-0.06l0.28,-0.06l0.27,-0.06l0.28,-0.05l0.28,-0.05l0.28,-0.05l0.28,-0.05l0.28,-0.05l0.28,-0.04l0.28,-0.04l0.28,-0.04l0.28,-0.04l0.28,-0.03l0.28,-0.03l0.28,-0.03l0.28,-0.03l0.28,-0.02l0.29,-0.02l0.28,-0.02l0.28,-0.01l0.28,-0.01l0.29,-0.01l0.28,-0.01l0.28,0l0.28,0l0.29,0l0.28,0.01l0.28,0.01l0.29,0.01l0.28,0.02l0.28,0.02l0.29,0.02l0.2,0.01l0.2,0.01l0.2,0.02l0.2,0.01l0.2,0.02l0.2,0.03l0.2,0.02l0.2,0.03l0.2,0.02l0.19,0.04l0.2,0.03l0.2,0.03l0.2,0.04l0.19,0.03l0.2,0.04l0.2,0.04l0.19,0.04l0.2,0.05l0.19,0.04l0.2,0.04l0.2,0.05l0.19,0.04l0.2,0.05l0.19,0.04l0.2,0.05l0.2,0.04l0.19,0.05l0.2,0.04l0.19,0.05l0.2,0.04l0.2,0.05l0.19,0.04l0.2,0.04l0.19,0.05l0.2,0.04l0.2,0.04l0.2,0.03l0.19,0.04l0.2,0.03l0.2,0.04l0.17,0.01l0.16,0l0.16,0l0.16,-0.01l0.16,-0.02l0.15,-0.03l0.15,-0.03l0.14,-0.05l0.15,-0.04l0.14,-0.06l0.14,-0.06l0.14,-0.06l0.13,-0.07l0.14,-0.08l0.13,-0.08l0.13,-0.08l0.13,-0.09l0.12,-0.09l0.13,-0.1l0.12,-0.1l0.12,-0.1l0.13,-0.1l0.11,-0.11l0.12,-0.11l0.12,-0.11l0.12,-0.11l0.11,-0.11l0.12,-0.11l0.12,-0.11l0.11,-0.12l0.11,-0.11l0.12,-0.11l0.11,-0.11l0.12,-0.11l0.11,-0.11l0.11,-0.11l0.12,-0.1l0.11,-0.1l0.12,-0.1l0.11,-0.1l0.3,-0.28l0.3,-0.28l0.3,-0.28l0.3,-0.26l0.31,-0.26l0.32,-0.26l0.32,-0.25l0.32,-0.25l0.32,-0.24l0.33,-0.24l0.33,-0.23l0.34,-0.23l0.33,-0.22l0.34,-0.22l0.35,-0.21l0.34,-0.21l0.35,-0.2l0.35,-0.21l0.36,-0.19l0.35,-0.2l0.36,-0.19l0.36,-0.18l0.36,-0.19l0.37,-0.18l0.36,-0.17l0.37,-0.18l0.37,-0.17l0.37,-0.16l0.37,-0.17l0.38,-0.16l0.37,-0.16l0.38,-0.16l0.37,-0.15l0.38,-0.15l0.38,-0.15l0.37,-0.15l0.38,-0.15l0.38,-0.14l0.38,-0.14l0.38,-0.15l0.76,-0.26l0.76,-0.25l0.76,-0.24l0.77,-0.23l0.77,-0.23l0.78,-0.21l0.77,-0.2l0.78,-0.19l0.78,-0.18l0.79,-0.17l0.78,-0.17l0.79,-0.15l0.79,-0.14l0.79,-0.14l0.79,-0.12l0.8,-0.11l0.79,-0.11l0.8,-0.09l0.8,-0.09l0.79,-0.07l0.8,-0.07l0.8,-0.06l0.8,-0.05l0.81,-0.03l0.8,-0.03l0.8,-0.02l0.8,-0.02l0.81,0l0.8,0.01l0.8,0.01zm-0.02,7.71l-0.78,0.02l-0.77,0.02l-0.77,0.04l-0.77,0.03l-0.76,0.05l-0.77,0.05l-0.76,0.05l-0.62,0.04l-0.61,0.05l-0.61,0.06l-0.61,0.06l-0.61,0.08l-0.61,0.08l-0.61,0.1l-0.6,0.1l-0.61,0.11l-0.6,0.12l-0.6,0.12l-0.6,0.14l-0.59,0.14l-0.6,0.15l-0.59,0.15l-0.59,0.17l-0.59,0.17l-0.59,0.18l-0.58,0.19l-0.58,0.19l-0.58,0.2l-0.58,0.21l-0.57,0.22l-0.57,0.22l-0.57,0.23l-0.57,0.24l-0.56,0.24l-0.56,0.25l-0.56,0.25l-0.55,0.26l-0.56,0.27l-0.55,0.28l-0.54,0.28l-0.55,0.28l-0.54,0.29l-0.53,0.3l-0.54,0.31l-0.53,0.31l-0.53,0.31l-0.52,0.32l-0.32,0.15l-0.32,0.16l-0.3,0.17l-0.31,0.17l-0.29,0.18l-0.3,0.19l-0.28,0.2l-0.28,0.2l-0.28,0.21l-0.27,0.22l-0.26,0.22l-0.26,0.23l-0.25,0.23l-0.25,0.24l-0.25,0.25l-0.23,0.25l-0.23,0.26l-0.23,0.26l-0.22,0.27l-0.22,0.27l-0.21,0.28l-0.2,0.28l-0.2,0.28l-0.2,0.29l-0.19,0.29l-0.18,0.3l-0.18,0.3l-0.18,0.3l-0.17,0.31l-0.16,0.3l-0.16,0.32l-0.15,0.31l-0.15,0.31l-0.15,0.32l-0.14,0.32l-0.13,0.32l-0.13,0.32l-0.12,0.33l-0.12,0.32l-0.12,0.33l-0.13,0.38l-0.12,0.39l-0.13,0.4l-0.12,0.39l-0.11,0.39l-0.12,0.4l-0.11,0.4l-0.1,0.4l-0.1,0.4l-0.1,0.4l-0.09,0.4l-0.09,0.4l-0.09,0.41l-0.08,0.4l-0.07,0.41l-0.07,0.4l-0.07,0.41l-0.06,0.41l-0.06,0.41l-0.05,0.41l-0.04,0.4l-0.04,0.41l-0.04,0.41l-0.03,0.42l-0.02,0.41l-0.02,0.41l-0.01,0.41l-0.01,0.41l0.01,0.41l0,0.41l0.02,0.41l0.02,0.41l0.03,0.41l0.03,0.41l0.04,0.41l0.05,0.41l0.06,0.41l0.06,0.41l0.07,0.4l0.08,0.41l0.09,0.52l0.11,0.53l0.11,0.52l0.11,0.52l0.12,0.52l0.13,0.52l0.13,0.51l0.14,0.52l0.14,0.51l0.15,0.51l0.16,0.51l0.16,0.51l0.17,0.51l0.17,0.5l0.18,0.51l0.19,0.5l0.19,0.49l0.2,0.5l0.21,0.49l0.21,0.49l0.21,0.49l0.23,0.48l0.23,0.48l0.23,0.48l0.24,0.48l0.25,0.47l0.25,0.47l0.27,0.46l0.26,0.46l0.28,0.46l0.28,0.45l0.28,0.45l0.3,0.45l0.29,0.44l0.31,0.44l0.31,0.43l0.32,0.43l0.33,0.42l0.33,0.42l0.34,0.41l0.37,0.45l0.38,0.44l0.39,0.44l0.4,0.42l0.4,0.42l0.42,0.41l0.41,0.4l0.43,0.39l0.44,0.39l0.44,0.38l0.44,0.36l0.46,0.37l0.46,0.35l0.47,0.34l0.47,0.34l0.48,0.33l0.48,0.32l0.49,0.31l0.5,0.31l0.5,0.29l0.5,0.29l0.51,0.27l0.52,0.27l0.52,0.26l0.52,0.26l0.53,0.24l0.53,0.23l0.54,0.23l0.54,0.22l0.54,0.2l0.55,0.2l0.55,0.19l0.55,0.18l0.56,0.17l0.56,0.17l0.56,0.15l0.56,0.14l0.57,0.14l0.56,0.12l0.57,0.12l0.68,0.12l0.68,0.12l0.69,0.11l0.68,0.1l0.69,0.09l0.69,0.08l0.7,0.07l0.69,0.07l0.7,0.05l0.69,0.05l0.7,0.03l0.7,0.03l0.7,0.02l0.69,0l0.7,0l0.7,-0.02l0.7,-0.03l0.69,-0.03l0.7,-0.05l0.69,-0.06l0.69,-0.08l0.69,-0.08l0.69,-0.09l0.69,-0.11l0.68,-0.12l0.68,-0.13l0.68,-0.15l0.68,-0.16l0.67,-0.17l0.67,-0.18l0.66,-0.2l0.66,-0.21l0.66,-0.23l0.65,-0.24l0.65,-0.25l0.64,-0.27l0.64,-0.28l0.63,-0.3l0.62,-0.31l0.62,-0.33l0.55,-0.3l0.54,-0.31l0.54,-0.32l0.52,-0.34l0.52,-0.35l0.51,-0.35l0.5,-0.37l0.49,-0.38l0.49,-0.39l0.47,-0.39l0.47,-0.41l0.46,-0.42l0.45,-0.42l0.45,-0.44l0.43,-0.44l0.43,-0.45l0.42,-0.46l0.41,-0.47l0.4,-0.47l0.39,-0.48l0.38,-0.49l0.38,-0.5l0.37,-0.5l0.36,-0.51l0.35,-0.52l0.34,-0.52l0.33,-0.53l0.33,-0.53l0.31,-0.53l0.31,-0.55l0.3,-0.54l0.29,-0.56l0.28,-0.55l0.28,-0.56l0.26,-0.56l0.26,-0.57l0.24,-0.57l0.24,-0.57l0.23,-0.58l0.22,-0.58l0.22,-0.58l0.21,-0.59l0.2,-0.59l0.19,-0.6l0.2,-0.6l0.18,-0.6l0.18,-0.6l0.17,-0.61l0.16,-0.6l0.16,-0.61l0.15,-0.62l0.14,-0.61l0.14,-0.62l0.12,-0.61l0.12,-0.62l0.11,-0.62l0.1,-0.62l0.09,-0.63l0.08,-0.62l0.07,-0.62l0.06,-0.63l0.06,-0.62l0.04,-0.63l0.03,-0.62l0.02,-0.63l0.01,-0.63l-0.01,-0.62l-0.01,-0.63l-0.03,-0.62l-0.04,-0.63l-0.05,-0.62l-0.06,-0.62l-0.08,-0.62l-0.09,-0.62l-0.1,-0.62l-0.12,-0.62l-0.13,-0.62l-0.14,-0.61l-0.16,-0.61l-0.17,-0.61l-0.11,-0.41l-0.12,-0.41l-0.12,-0.41l-0.13,-0.4l-0.14,-0.4l-0.14,-0.4l-0.16,-0.4l-0.16,-0.39l-0.17,-0.39l-0.17,-0.38l-0.18,-0.39l-0.19,-0.38l-0.2,-0.37l-0.2,-0.37l-0.21,-0.37l-0.22,-0.37l-0.22,-0.35l-0.23,-0.36l-0.24,-0.35l-0.25,-0.35l-0.25,-0.34l-0.25,-0.33l-0.27,-0.33l-0.26,-0.33l-0.28,-0.32l-0.28,-0.32l-0.29,-0.31l-0.29,-0.3l-0.3,-0.3l-0.31,-0.29l-0.31,-0.29l-0.32,-0.27l-0.32,-0.28l-0.33,-0.26l-0.34,-0.26l-0.34,-0.26l-0.34,-0.24l-0.36,-0.24l-0.35,-0.23l-0.37,-0.22l-0.67,-0.41l-0.67,-0.38l-0.69,-0.37l-0.69,-0.34l-0.7,-0.34l-0.7,-0.31l-0.71,-0.3l-0.72,-0.28l-0.72,-0.26l-0.72,-0.25l-0.74,-0.23l-0.73,-0.22l-0.74,-0.21l-0.75,-0.18l-0.75,-0.18l-0.75,-0.16l-0.76,-0.15l-0.76,-0.14l-0.76,-0.12l-0.76,-0.11l-0.77,-0.11l-0.77,-0.08l-0.77,-0.08l-0.77,-0.07l-0.78,-0.06l-0.77,-0.04l-0.78,-0.04l-0.77,-0.03l-0.78,-0.02l-0.78,-0.01l-0.77,-0.01l-0.78,0.01l-0.77,0.01z"/>
  <path id="bdGDSKTtH" d="m398.89,191.91c-3.4,2.19 -6.81,4.35 -10.06,6.75c0.1,-1.31 -0.05,-2.62 0.12,-3.93c0,0 0,0 0,0c0.17,-1 0.84,-1.92 1.95,-1.96c2.68,-0.06 5.36,-0.31 7.99,-0.86z"/>
  <path id="a2gnY28n2R" d="m146.67,194.7c6.27,2.62 12.5,5.36 18.8,7.91c-0.01,0.04 -0.1,0.43 -0.11,0.48c-5.7,9.3 -11.28,18.68 -16.93,28.01c-4.04,-1.79 -8.28,-3.3 -12.19,-5.29c2.89,-10.53 5.69,-21.1 8.46,-31.65c0.71,-0.24 1.32,0.36 1.97,0.54z"/>
  <path id="d165aSb2lv" d="m424.19,217.51l1.4,0.65l1.29,0.85l1.14,1.04l0.95,1.2l0.74,1.34l0.49,1.47l0.21,1.56l0.03,1.34l-0.18,1.31l-0.38,1.26l-0.55,1.2l-0.72,1.11l-0.86,1l-0.99,0.88l-1.09,0.73l-1.19,0.57l-1.27,0.39l-1.32,0.19l-1.19,0.04l-1.18,-0.12l-1.15,-0.28l-1.11,-0.42l-1.04,-0.56l-0.98,-0.68l-0.88,-0.79l-0.78,-0.89l-0.65,-0.98l-0.52,-1.06l-0.37,-1.14l-0.27,-1.27l-0.07,-1.28l0.12,-1.27l0.29,-1.24l0.45,-1.2l0.61,-1.13l0.75,-1.03l0.88,-0.93l1,-0.8l1.1,-0.64l1.21,-0.48l1.52,-0.4l1.54,-0.11l1.53,0.16l1.49,0.41zm-1.52,4.7l-0.22,1.41l0.5,1.33l1.18,0.82l1.36,0.12l1.2,-0.62l0.76,-1.12l0.04,-1.36l-0.52,-1.09l-0.98,-0.7l-1.19,-0.22l-1.15,0.38l-0.98,1.05z"/>
  <path id="boSLHjXfL" d="m525.02,217.36l1.34,0.53l1.26,0.71l1.13,0.89l0.99,1.04l0.81,1.19l0.61,1.31l0.38,1.42l0.2,1.38l-0.03,1.39l-0.25,1.35l-0.45,1.3l-0.63,1.23l-0.8,1.13l-0.95,1l-1.08,0.85l-1.19,0.69l-1.3,0.49l-1.37,0.28l-1.24,0.11l-1.23,-0.07l-1.21,-0.24l-1.17,-0.39l-1.11,-0.55l-1.03,-0.68l-0.94,-0.8l-0.82,-0.92l-0.7,-1.02l-0.54,-1.1l-0.39,-1.19l-0.26,-1.26l-0.07,-1.27l0.12,-1.26l0.28,-1.24l0.46,-1.19l0.6,-1.12l0.74,-1.03l0.87,-0.92l0.99,-0.79l1.1,-0.65l1.19,-0.47l1.41,-0.4l1.44,-0.14l1.44,0.09l1.4,0.32zm-0.96,4.66l-0.35,1.11l0.15,1.15l0.67,0.98l1.19,0.62l1.32,-0.09l1.13,-0.69l0.61,-1.19l-0.11,-1.5l-0.94,-1.14l-1.39,-0.5l-1.44,0.41l-0.84,0.84z"/>
  <path id="c7vNxOo4AS" d="m138.35,229.45l0.52,0.22l0.51,0.22l0.52,0.22l0.51,0.22l0.52,0.22l0.51,0.21l0.52,0.22l0.51,0.22l0.52,0.22l0.51,0.21l0.52,0.22l0.52,0.21l0.52,0.21l0.51,0.21l-0.29,1.01l-0.3,1.02l-0.3,1.02l-0.59,2.03l-0.3,1.02l-0.3,1.02l-0.3,1.02l-0.3,1.01l-0.3,1.02l-0.3,1.01l-0.31,1.02l-0.31,1.01l-0.31,1.01l-0.32,1.01l-0.31,1.01l-1.07,0.71l-1.03,0.75l-1,0.79l-0.97,0.83l-0.93,0.85l-0.91,0.89l-0.88,0.92l-0.85,0.95l-0.82,0.98l-0.79,0.99l-0.77,1.02l-0.74,1.04l-0.72,1.06l-0.69,1.07l-0.66,1.08l-0.65,1.1l0.32,-1.26l0.29,-1.27l0.27,-1.28l0.26,-1.28l0.23,-1.28l0.2,-1.29l0.18,-1.3l0.14,-1.29l0.11,-1.3l0.08,-1.3l0.04,-1.3l0,-1.3l-0.04,-1.31l-0.08,-1.29l-0.13,-1.3l-0.18,-1.3l0.5,-0.87l0.51,-0.87l0.51,-0.87l0.5,-0.87l0.51,-0.87l0.51,-0.87l0.5,-0.87l0.5,-0.87l0.51,-0.87l0.5,-0.88l0.5,-0.87l0.51,-0.87l0.5,-0.88l0.5,-0.87l0.49,-0.88l0.5,-0.87l0.33,-0.14l0.52,0.22l0.51,0.22zm-3.75,14.29l-0.98,1.05l-0.47,1.43l0.21,1.39l1.05,0.95l1.5,-0.24l1.09,-1.09l0.49,-1.51l-0.33,-1.49l-0.47,-0.57l-0.68,-0.27l-0.75,0.03l-0.66,0.32z"/>
  <path id="i1K1qpIVFW" d="m151.86,153.54c1.49,3.41 4.18,6.31 4.82,10.09c-0.01,1.02 0.83,2.09 0.43,3.05c-10.4,0.47 -20.79,1.33 -31.1,2.75c-4.87,0.83 -10.04,1.22 -14.5,3.4c-6.01,8.29 -12.14,16.61 -16.6,25.84c9.65,-0.91 19.28,-2.1 28.93,-3.19c1.53,0.69 1.64,2.69 1.85,4.17c0.16,3.19 3.09,5.66 3.31,8.71c-13.99,2.22 -27.96,4.63 -41.92,7.01c-7.22,15.31 -14.5,30.61 -21.72,45.93c-2.59,-0.32 -4.92,-1.97 -7.06,-3.45c-2.18,-1.85 -4.81,-3.89 -5.13,-6.92c2.49,-7.81 6.1,-15.21 9.06,-22.85c1.89,-5.06 4.55,-9.78 7.45,-14.32c2.33,-3.22 0.77,-7.47 -0.67,-10.74c2.43,-1.02 5.28,-1.02 7.81,-1.89c4.94,-9.23 9.89,-18.46 14.79,-27.73c0,-0.05 0,-0.43 0,-0.48c-2.03,-0.13 -4.73,-0.15 -5.42,-2.55c-0.51,-2.46 -0.84,-5.08 -0.57,-7.56c10.57,-1.57 21,-4.03 31.43,-6.31c11.35,-2.63 23.17,-5.22 34.81,-2.96z"/>
  <path id="a2QzhNLsgW" d="m259.75,155.44c4.19,-0.76 8.47,-0.44 12.69,-0.15c0.02,0.04 0.13,0.41 0.15,0.45c-5.76,11.63 -11.31,23.37 -17.03,35.01c-0.51,1.39 -1.47,2.63 -1.84,4.07c20.86,-12.26 41.59,-24.76 62.4,-37.12c0.04,-0.01 0.37,-0.11 0.41,-0.13c1.07,0.62 2.17,1.21 3.2,1.88c1.56,3.06 1.33,6.51 0.69,9.77c-19.2,13.31 -38.42,26.6 -57.57,39.98c6.41,9.62 12.94,19.2 18.36,29.43c2.69,5.07 5.3,10.23 6.96,15.76c-0.02,0.03 -0.18,0.31 -0.2,0.34c-5.16,-0.05 -9.34,3.45 -14.21,4.53c-0.19,-0.04 -0.55,-0.11 -0.73,-0.14c-6.27,-10.22 -12.77,-20.31 -19.1,-30.49c-2.57,-3.93 -4.94,-8.16 -7.64,-11.89c-6.51,12.43 -12.72,25.02 -18.87,37.63c-1.09,1.98 -1.82,4.24 -3.1,6.06c-4.06,-0.26 -5.81,-5.02 -9.56,-6.03c-1.64,-0.67 -4.36,-1.15 -4.31,-3.4c6.5,-15.16 13.82,-29.96 20.93,-44.85c6.49,-13.35 12.98,-26.71 19.75,-39.92c1.54,-3.06 2.99,-6.21 5.1,-8.94c0.81,-1.14 2.22,-1.54 3.52,-1.85z"/>
  <path id="bnm9UlirC" d="m222.11,190.25c2.64,-1.23 5.54,0.19 7.47,2.05c1.17,1.18 2.6,2.4 2.98,4.07c-0.67,2.18 -2.36,3.82 -3.79,5.54c-3.93,4.28 -8.22,8.28 -12.92,11.73c-0.86,0.56 -1.76,1.1 -2.71,1.5c-1.16,-0.08 -2.27,-0.5 -3.41,-0.68c-0.92,-1.32 -1.01,-3.51 -2.76,-4.01c-1.3,-0.61 -3.23,-1.53 -2.73,-3.3c2.28,-4.08 4.66,-8.26 8.32,-11.27c-0.78,-0.19 -1.54,0.2 -2.29,0.39c-5.24,1.69 -9.7,5.12 -13.68,8.83c-8.35,7.94 -15.11,17.59 -19.57,28.22c-1.51,3.98 -2.95,8.42 -1.7,12.66c0.74,2.18 3.17,2.79 5.18,3.25c6.4,0.82 12.46,-2.42 17.23,-6.39c4.57,-3.73 8.47,-8.38 10.94,-13.77c1.1,1.51 0.48,3.33 0.06,4.95c0.53,1.83 1.54,3.62 1.27,5.59c-2.53,9 -9.88,16.27 -18.65,19.29c-6.75,2.48 -14.63,2.34 -21.01,-1.15c-3.3,-1.8 -6.08,-4.47 -8.21,-7.54c-3.67,-4.64 -2.87,-11.05 -2.07,-16.5c4.57,-23.2 24.01,-42.11 46.82,-47.56c5.24,-1.73 11.97,-0.68 15.23,4.1z"/>
  <path id="bc701zuM3" d="m410.62,185.89c1.09,0.4 1.96,1.19 2.53,2.2c0.76,2.24 0.95,4.85 2.93,6.44c0.9,1.19 2.43,2.97 1.08,4.36c-3.34,1.56 -6.7,3.07 -10,4.69c-3.82,1.74 -7.59,3.59 -11.28,5.58c-5.8,3.32 -11.49,7.09 -15.86,12.23c-1.63,1.88 -2.59,4.2 -3.77,6.37c-5.18,10.65 -9.79,21.57 -14.21,32.55c-3.08,0.61 -5.43,-2.22 -7.02,-4.47c-1.45,-1.03 -3.32,-1.12 -4.82,-2.05c-0.04,-0.28 -0.11,-0.84 -0.15,-1.12c5.97,-21.37 15.24,-41.62 24.95,-61.5c1.98,-2.53 5.7,-0.44 8.31,-1.37c2.47,-1.33 5.11,-3.77 8.1,-2.34c-0.35,2.37 -1.98,4.44 -2.79,6.72c0.04,0.05 -0.32,0.7 -0.4,0.71c-0.78,2.22 -1.77,4.36 -2.73,6.51c1.13,-0.9 -0.01,-0.37 3.34,-2.74c3.35,-2.37 6.66,-4.56 10.06,-6.75c3.81,-2.17 7.57,-4.53 11.73,-6.02z"/>
  <path id="bum136uq9" d="m343.7,189.21l0.39,0.03l0.38,0.03l0.39,0.05l0.38,0.05l0.38,0.06l0.38,0.08l0.38,0.08l0.38,0.09l0.37,0.1l0.37,0.11l0.37,0.12l0.37,0.13l0.36,0.13l0.36,0.15l0.35,0.15l0.35,0.16l0.35,0.18l0.34,0.18l0.33,0.18l0.34,0.2l0.32,0.21l0.32,0.21l0.32,0.23l0.3,0.23l0.31,0.24l0.29,0.24l0.29,0.26l0.28,0.27l0.27,0.27l0.27,0.28l0.26,0.29l0.25,0.3l0.24,0.3l0.23,0.32l0.29,0.38l0.27,0.39l0.26,0.39l0.25,0.41l0.23,0.41l0.22,0.42l0.21,0.42l0.19,0.43l0.18,0.44l0.17,0.44l0.15,0.44l0.14,0.45l0.13,0.46l0.11,0.45l0.1,0.46l0.09,0.47l0.08,0.47l0.06,0.46l0.05,0.47l0.03,0.48l0.02,0.47l0.01,0.47l0,0.48l-0.01,0.47l-0.03,0.48l-0.04,0.47l-0.05,0.47l-0.07,0.47l-0.08,0.47l-0.09,0.46l-0.1,0.47l-0.11,0.46l-0.13,0.45l-0.14,0.45l-0.15,0.45l-0.17,0.45l-0.17,0.43l-0.19,0.44l-0.2,0.43l-0.21,0.42l-0.28,0.52l-0.3,0.52l-0.3,0.51l-0.33,0.49l-0.33,0.49l-0.34,0.47l-0.36,0.46l-0.37,0.46l-0.38,0.44l-0.38,0.44l-0.4,0.42l-0.41,0.42l-0.42,0.41l-0.42,0.4l-0.44,0.39l-0.44,0.38l-0.45,0.37l-0.46,0.37l-0.46,0.36l-0.47,0.36l-0.48,0.34l-0.48,0.34l-0.49,0.33l-0.49,0.33l-0.5,0.32l-0.5,0.32l-0.51,0.31l-0.5,0.3l-0.51,0.3l-0.52,0.29l-0.51,0.29l-0.52,0.29l-0.52,0.28l-0.52,0.27l-0.52,0.28l-0.52,0.27l-0.52,0.26l-0.53,0.27l-0.52,0.26l-0.51,0.26l-0.76,0.35l-0.77,0.34l-0.76,0.34l-0.77,0.33l-0.78,0.33l-0.77,0.32l-0.78,0.31l-0.78,0.31l-0.78,0.31l-0.78,0.29l-0.79,0.29l-0.79,0.29l-0.79,0.28l-0.8,0.27l-0.79,0.26l-0.8,0.26l-0.8,0.25l-0.81,0.25l-0.8,0.23l-0.81,0.23l-0.81,0.23l-0.81,0.21l-0.81,0.21l-0.81,0.2l-0.82,0.2l-0.82,0.18l-0.82,0.18l-0.82,0.17l-0.82,0.16l-0.82,0.16l-0.83,0.14l-0.82,0.14l-0.83,0.13l-0.83,0.12l-0.83,0.12l-0.83,0.1l-0.84,0.1l-0.83,0.09l-0.84,0.08l-0.83,0.07l-0.04,0.21l-0.04,0.22l-0.05,0.22l-0.05,0.22l-0.05,0.22l-0.06,0.23l-0.05,0.22l-0.06,0.23l-0.06,0.22l-0.06,0.23l-0.06,0.23l-0.06,0.22l-0.05,0.23l-0.06,0.23l-0.05,0.23l-0.06,0.23l-0.05,0.23l-0.04,0.23l-0.04,0.23l-0.04,0.22l-0.04,0.23l-0.02,0.23l-0.03,0.23l-0.01,0.22l-0.02,0.23l0,0.22l0,0.23l0.02,0.22l0.02,0.22l0.02,0.22l0.04,0.22l0.05,0.22l0.06,0.21l0.07,0.22l0.08,0.21l0.09,0.21l0.1,0.21l0.11,0.21l0.13,0.2l0.14,0.21l0.21,0.25l0.21,0.24l0.21,0.22l0.23,0.21l0.23,0.2l0.24,0.18l0.24,0.18l0.25,0.16l0.26,0.15l0.26,0.14l0.27,0.12l0.27,0.12l0.28,0.11l0.28,0.09l0.28,0.09l0.29,0.08l0.29,0.07l0.3,0.06l0.3,0.06l0.3,0.04l0.3,0.04l0.31,0.03l0.3,0.03l0.31,0.02l0.31,0.01l0.31,0.01l0.31,0l0.31,0l0.32,0l0.31,-0.01l0.31,-0.01l0.3,-0.02l0.31,-0.02l0.31,-0.02l0.3,-0.02l0.3,-0.03l0.3,-0.03l0.3,-0.02l0.29,-0.03l0.29,-0.03l0.69,-0.12l0.69,-0.13l0.68,-0.14l0.69,-0.15l0.68,-0.16l0.68,-0.18l0.68,-0.19l0.67,-0.2l0.68,-0.21l0.67,-0.22l0.66,-0.24l0.66,-0.25l0.66,-0.26l0.65,-0.27l0.65,-0.29l0.64,-0.29l0.63,-0.31l0.63,-0.32l0.62,-0.34l0.62,-0.34l0.6,-0.36l0.6,-0.37l0.59,-0.38l0.58,-0.4l0.58,-0.4l0.56,-0.42l0.55,-0.43l0.55,-0.45l0.53,-0.45l0.52,-0.47l0.51,-0.48l0.5,-0.49l0.48,-0.51l0.48,-0.51l0.46,-0.53l0.45,-0.54l0.43,-0.56l0.42,-0.57l0.41,-0.57l0.39,-0.6l0.03,-0.03l0.04,-0.04l0.03,-0.04l0.03,-0.04l0.03,-0.04l0.02,-0.05l0.03,-0.04l0.03,-0.05l0.02,-0.05l0.02,-0.05l0.03,-0.04l0.02,-0.05l0.02,-0.05l0.03,-0.05l0.02,-0.05l0.02,-0.05l0.02,-0.05l0.03,-0.05l0.02,-0.05l0.02,-0.05l0.03,-0.05l0.02,-0.04l0.03,-0.05l0.03,-0.04l0.02,-0.05l0.03,-0.04l0.03,-0.04l0.04,-0.04l0.03,-0.03l0.03,-0.04l0.04,-0.03l0.04,-0.03l0.04,-0.03l0.04,-0.02l0.05,-0.02l0.04,-0.02l0.05,-0.02l0.05,-0.01l0.06,-0.01l0.05,-0.01l0.05,0.11l0.04,0.11l0.04,0.1l0.03,0.11l0.03,0.11l0.03,0.11l0.03,0.11l0.02,0.11l0.02,0.11l0.02,0.12l0.01,0.11l0.02,0.11l0.01,0.11l0.01,0.12l0.01,0.11l0.01,0.12l0.01,0.11l0,0.11l0.01,0.12l0,0.11l0.01,0.12l0,0.11l0.01,0.23l0,0.11l0.01,0.12l0,0.11l0.01,0.12l0,0.11l0.01,0.11l0.01,0.12l0.01,0.11l0.01,0.11l0.01,0.12l0.01,0.11l0.02,0.11l0.02,0.11l0.02,0.11l0.02,0.11l0.03,0.11l0.07,0.09l0.07,0.09l0.07,0.09l0.08,0.09l0.08,0.09l0.08,0.08l0.08,0.09l0.08,0.08l0.08,0.08l0.09,0.08l0.08,0.08l0.09,0.08l0.09,0.07l0.09,0.08l0.09,0.08l0.08,0.07l0.18,0.16l0.09,0.07l0.09,0.08l0.09,0.08l0.08,0.07l0.09,0.08l0.09,0.08l0.08,0.08l0.09,0.08l0.08,0.08l0.08,0.09l0.08,0.08l0.08,0.09l0.07,0.08l0.07,0.09l0.08,0.09l0.06,0.1l0.07,0.09l0.06,0.1l0.07,0.1l0.05,0.1l0.06,0.1l0.05,0.11l-0.13,0.5l-0.15,0.49l-0.16,0.48l-0.18,0.48l-0.19,0.47l-0.2,0.47l-0.21,0.46l-0.23,0.45l-0.24,0.44l-0.24,0.44l-0.26,0.44l-0.27,0.42l-0.29,0.42l-0.29,0.41l-0.3,0.41l-0.31,0.4l-0.31,0.4l-0.33,0.39l-0.34,0.38l-0.34,0.38l-0.35,0.37l-0.36,0.36l-0.36,0.36l-0.37,0.35l-0.38,0.35l-0.38,0.34l-0.39,0.33l-0.4,0.33l-0.4,0.32l-0.4,0.32l-0.41,0.31l-0.41,0.3l-0.41,0.3l-0.42,0.3l-0.42,0.28l-0.42,0.29l-0.42,0.27l-0.43,0.27l-0.42,0.27l-0.43,0.26l-0.59,0.34l-0.6,0.33l-0.6,0.32l-0.61,0.32l-0.61,0.31l-0.61,0.3l-0.62,0.3l-0.63,0.28l-0.62,0.28l-0.63,0.27l-0.64,0.26l-0.64,0.25l-0.64,0.25l-0.64,0.23l-0.65,0.23l-0.65,0.21l-0.65,0.21l-0.66,0.2l-0.66,0.18l-0.66,0.18l-0.67,0.17l-0.66,0.16l-0.67,0.14l-0.67,0.14l-0.67,0.12l-0.68,0.12l-0.67,0.1l-0.68,0.1l-0.68,0.08l-0.68,0.07l-0.68,0.06l-0.68,0.04l-0.68,0.04l-0.69,0.02l-0.68,0.01l-0.68,0l-0.69,-0.01l-0.68,-0.03l-0.69,-0.04l-0.68,-0.05l-0.33,-0.04l-0.33,-0.03l-0.33,-0.04l-0.32,-0.05l-0.33,-0.04l-0.33,-0.06l-0.33,-0.05l-0.32,-0.07l-0.33,-0.06l-0.33,-0.07l-0.32,-0.08l-0.32,-0.08l-0.32,-0.08l-0.33,-0.09l-0.31,-0.1l-0.32,-0.1l-0.32,-0.1l-0.31,-0.12l-0.31,-0.11l-0.31,-0.12l-0.3,-0.13l-0.31,-0.13l-0.3,-0.14l-0.3,-0.15l-0.29,-0.15l-0.29,-0.15l-0.29,-0.16l-0.28,-0.17l-0.28,-0.17l-0.28,-0.18l-0.27,-0.19l-0.27,-0.19l-0.26,-0.2l-0.26,-0.21l-0.25,-0.21l-0.25,-0.22l-0.25,-0.22l-0.24,-0.23l-0.23,-0.24l-0.23,-0.25l-0.22,-0.27l-0.22,-0.28l-0.22,-0.28l-0.21,-0.28l-0.21,-0.29l-0.2,-0.29l-0.2,-0.29l-0.19,-0.3l-0.19,-0.3l-0.18,-0.31l-0.18,-0.3l-0.17,-0.31l-0.17,-0.31l-0.16,-0.32l-0.16,-0.32l-0.15,-0.32l-0.14,-0.32l-0.14,-0.32l-0.13,-0.33l-0.13,-0.33l-0.12,-0.33l-0.12,-0.33l-0.11,-0.34l-0.1,-0.34l-0.1,-0.34l-0.09,-0.34l-0.09,-0.34l-0.08,-0.34l-0.07,-0.35l-0.07,-0.35l-0.06,-0.35l-0.05,-0.34l-0.05,-0.36l-0.04,-0.35l-0.03,-0.35l-0.03,-0.35l-0.02,-0.36l-0.01,-0.35l-0.01,-0.36l0,-0.35l0.01,-0.86l0.03,-0.85l0.05,-0.85l0.06,-0.85l0.08,-0.85l0.1,-0.84l0.11,-0.85l0.13,-0.84l0.15,-0.83l0.16,-0.83l0.18,-0.83l0.19,-0.83l0.21,-0.82l0.22,-0.82l0.24,-0.82l0.25,-0.81l0.26,-0.81l0.28,-0.8l0.29,-0.8l0.3,-0.8l0.31,-0.79l0.33,-0.79l0.34,-0.78l0.35,-0.78l0.36,-0.77l0.37,-0.77l0.38,-0.76l0.39,-0.76l0.41,-0.75l0.41,-0.75l0.42,-0.74l0.43,-0.74l0.44,-0.73l0.44,-0.73l0.46,-0.72l0.46,-0.71l0.47,-0.71l0.48,-0.7l0.49,-0.69l0.49,-0.69l0.7,-0.95l0.73,-0.94l0.74,-0.93l0.76,-0.91l0.78,-0.9l0.8,-0.88l0.82,-0.87l0.84,-0.85l0.85,-0.83l0.87,-0.82l0.89,-0.81l0.9,-0.78l0.92,-0.76l0.93,-0.75l0.95,-0.72l0.96,-0.71l0.98,-0.69l0.99,-0.66l1.01,-0.64l1.02,-0.62l1.03,-0.6l1.04,-0.57l1.06,-0.55l1.07,-0.52l1.07,-0.5l1.09,-0.48l1.1,-0.44l1.11,-0.42l1.12,-0.4l1.13,-0.36l1.14,-0.34l1.15,-0.31l1.15,-0.28l1.16,-0.24l1.17,-0.22l1.18,-0.19l1.18,-0.15l1.19,-0.13l1.2,-0.09l1.2,-0.05l0.39,-0.03l0.38,-0.02l0.39,-0.02l0.39,0l0.38,0.01l0.39,0.02zm-6.68,14.07l-0.98,0.14l-0.97,0.2l-0.97,0.24l-0.96,0.29l-0.95,0.33l-0.94,0.36l-0.93,0.38l-0.91,0.42l-0.91,0.42l-0.89,0.44l-0.87,0.45l-1.26,0.65l-1.21,0.71l-1.19,0.75l-1.15,0.8l-1.13,0.84l-1.09,0.89l-1.06,0.92l-1.02,0.95l-1,1l-0.96,1.02l-0.93,1.05l-0.91,1.08l-0.87,1.11l-0.84,1.13l-0.81,1.14l-0.78,1.17l0.22,-0.01l0.21,-0.02l0.21,-0.03l0.21,-0.03l0.21,-0.04l0.21,-0.04l0.21,-0.05l0.21,-0.05l0.21,-0.05l0.2,-0.05l0.21,-0.05l0.21,-0.04l0.21,-0.05l0.21,-0.04l0.21,-0.04l0.22,-0.03l1.17,-0.31l1.18,-0.31l1.19,-0.29l1.19,-0.29l1.18,-0.29l1.19,-0.29l1.19,-0.29l1.18,-0.29l1.18,-0.31l1.18,-0.31l1.18,-0.33l1.17,-0.35l1.16,-0.36l1.16,-0.38l1.15,-0.41l1.14,-0.44l0.78,-0.36l0.78,-0.36l0.79,-0.36l0.79,-0.37l0.78,-0.39l0.78,-0.4l0.77,-0.42l0.75,-0.43l0.74,-0.46l0.72,-0.48l0.7,-0.51l0.67,-0.54l0.64,-0.57l0.61,-0.61l0.58,-0.65l0.53,-0.69l0.26,-0.36l0.19,-0.38l0.12,-0.39l0.06,-0.4l0.01,-0.39l-0.06,-0.39l-0.1,-0.39l-0.15,-0.37l-0.2,-0.36l-0.23,-0.34l-0.27,-0.31l-0.3,-0.28l-0.34,-0.25l-0.35,-0.22l-0.38,-0.17l-0.39,-0.12l-1,-0.21l-0.99,-0.13l-0.99,-0.05l-0.99,0.02l-0.98,0.08z"/>
 </defs>
 <g>
  <title>background</title>
  <rect fill="none" id="canvas_background" height="161" width="560" y="-1" x="-1"/>
 </g>
 <g>
  <title>Layer 1</title>
  <g id="svg_1">
   <g id="svg_2">
    <g id="svg_3">
     <use x="-44" y="-111" id="svg_4" fill="#f7f7f7" xlink:href="#bGLZv8Rwz"/>
     <g id="svg_5">
      <use x="-44" y="-111" id="svg_6" stroke-opacity="0" stroke="#000000" fill-opacity="0" xlink:href="#bGLZv8Rwz"/>
     </g>
    </g>
    <g id="svg_7">
     <use x="-44" y="-111" id="svg_8" fill="#f7f7f7" xlink:href="#cGui0wrKf"/>
     <g id="svg_9">
      <use x="-44" y="-111" id="svg_10" stroke-opacity="0" stroke="#000000" fill-opacity="0" xlink:href="#cGui0wrKf"/>
     </g>
    </g>
    <g id="svg_11">
     <use x="-44" y="-111" id="svg_12" fill="#f7f7f7" xlink:href="#a43vmYTI4"/>
     <g id="svg_13">
      <use x="-44" y="-111" id="svg_14" stroke-opacity="0" stroke="#000000" fill-opacity="0" xlink:href="#a43vmYTI4"/>
     </g>
    </g>
    <g id="svg_15">
     <use x="-44" y="-111" id="svg_16" fill="#f7f7f7" xlink:href="#b15QygL4Rz"/>
     <g id="svg_17">
      <use x="-44" y="-111" id="svg_18" stroke-opacity="0" stroke="#000000" fill-opacity="0" xlink:href="#b15QygL4Rz"/>
     </g>
    </g>
    <g id="svg_19">
     <use x="-44" y="-111" id="svg_20" fill="#ffffff" xlink:href="#a1OycJPAP"/>
     <g id="svg_21">
      <use fill="#ffffff" x="-44" y="-111" id="svg_22" stroke-opacity="0" stroke="#000000" fill-opacity="0" xlink:href="#a1OycJPAP"/>
     </g>
    </g>
    <g id="svg_23">
     <use x="-44" y="-111" id="svg_24" fill="#ffffff" xlink:href="#c59HP7ori"/>
     <g id="svg_25">
      <use fill="#ffffff" x="-44" y="-111" id="svg_26" stroke-opacity="0" stroke="#000000" fill-opacity="0" xlink:href="#c59HP7ori"/>
     </g>
    </g>
    <g id="svg_27">
     <use x="-44" y="-111" id="svg_28" fill="#ffffff" xlink:href="#a2dKJiQL4W"/>
     <g id="svg_29">
      <use fill="#ffffff" x="-44" y="-111" id="svg_30" stroke-opacity="0" stroke="#000000" fill-opacity="0" xlink:href="#a2dKJiQL4W"/>
     </g>
    </g>
    <g id="svg_31">
     <use x="-44" y="-111" id="svg_32" fill="#ffffff" xlink:href="#bdGDSKTtH"/>
     <g id="svg_33">
      <use fill="#ffffff" x="-44" y="-111" id="svg_34" stroke-opacity="0" stroke="#000000" fill-opacity="0" xlink:href="#bdGDSKTtH"/>
     </g>
    </g>
    <g id="svg_35">
     <use x="-44" y="-111" id="svg_36" fill="#ffffff" xlink:href="#a2gnY28n2R"/>
     <g id="svg_37">
      <use fill="#ffffff" x="-44" y="-111" id="svg_38" stroke-opacity="0" stroke="#000000" fill-opacity="0" xlink:href="#a2gnY28n2R"/>
     </g>
    </g>
    <g id="svg_39">
     <use x="-44" y="-111" id="svg_40" fill="#ffffff" xlink:href="#d165aSb2lv"/>
     <g id="svg_41">
      <use fill="#ffffff" x="-44" y="-111" id="svg_42" stroke-opacity="0" stroke="#000000" fill-opacity="0" xlink:href="#d165aSb2lv"/>
     </g>
    </g>
    <g id="svg_43">
     <use x="-44" y="-111" id="svg_44" fill="#ffffff" xlink:href="#boSLHjXfL"/>
     <g id="svg_45">
      <use fill="#ffffff" x="-44" y="-111" id="svg_46" stroke-opacity="0" stroke="#000000" fill-opacity="0" xlink:href="#boSLHjXfL"/>
     </g>
    </g>
    <g id="svg_47">
     <use x="-44" y="-111" id="svg_48" fill="#ffffff" xlink:href="#c7vNxOo4AS"/>
     <g id="svg_49">
      <use fill="#ffffff" x="-44" y="-111" id="svg_50" stroke-opacity="0" stroke="#000000" fill-opacity="0" xlink:href="#c7vNxOo4AS"/>
     </g>
    </g>
    <g id="svg_51">
     <use x="-44" y="-111" id="svg_52" fill="#ffffff" xlink:href="#i1K1qpIVFW"/>
     <g id="svg_53">
      <use fill="#ffffff" x="-44" y="-111" id="svg_54" stroke-opacity="0" stroke="#000000" fill-opacity="0" xlink:href="#i1K1qpIVFW"/>
     </g>
    </g>
    <g id="svg_55">
     <use x="-44" y="-111" id="svg_56" fill="#ffffff" xlink:href="#a2QzhNLsgW"/>
     <g id="svg_57">
      <use fill="#ffffff" x="-44" y="-111" id="svg_58" stroke-opacity="0" stroke="#000000" fill-opacity="0" xlink:href="#a2QzhNLsgW"/>
     </g>
    </g>
    <g id="svg_59">
     <use x="-44" y="-111" id="svg_60" fill="#ffffff" xlink:href="#bnm9UlirC"/>
     <g id="svg_61">
      <use fill="#ffffff" x="-44" y="-111" id="svg_62" stroke-opacity="0" stroke="#000000" fill-opacity="0" xlink:href="#bnm9UlirC"/>
     </g>
    </g>
    <g id="svg_63">
     <use x="-44" y="-111" id="svg_64" fill="#ffffff" xlink:href="#bc701zuM3"/>
     <g id="svg_65">
      <use fill="#ffffff" x="-44" y="-111" id="svg_66" stroke-opacity="0" stroke="#000000" fill-opacity="0" xlink:href="#bc701zuM3"/>
     </g>
    </g>
    <g id="svg_67">
     <use x="-44" y="-111" id="svg_68" fill="#ffffff" xlink:href="#bum136uq9"/>
     <g id="svg_69">
      <use fill="#ffffff" x="-44" y="-111" id="svg_70" stroke-opacity="0" stroke="#000000" fill-opacity="0" xlink:href="#bum136uq9"/>
     </g>
    </g>
   </g>
  </g>
 </g>
</svg>