<?xml version="1.0" encoding="UTF-8" standalone="no"?>
<!DOCTYPE svg PUBLIC "-//W3C//DTD SVG 1.1//EN" "http://www.w3.org/Graphics/SVG/1.1/DTD/svg11.dtd">
<svg version="1.1" xmlns="http://www.w3.org/2000/svg" xmlns:xlink="http://www.w3.org/1999/xlink" preserveAspectRatio="xMidYMid meet" viewBox="124.20799248752047 124.20801246751961 422.2479749051209 422.2479749051209" width="418.25" height="418.25"><defs><path d="M543.46 334.33C543.46 449.83 449.83 543.46 334.33 543.46C218.84 543.46 125.21 449.83 125.21 334.33C125.21 218.84 218.84 125.21 334.33 125.21C449.83 125.21 543.46 218.84 543.46 334.33" id="a1C7qwGO1"></path><path d="M456.88 384.79L456.59 384.5L456.59 384.5L452.01 379.92L449.62 377.54C445.44 373.36 443.12 371.03 442.65 370.57C441.35 369.27 439.64 368.62 437.92 368.63C437.92 359.18 437.92 311.93 437.92 226.89L271.28 226.89L228.08 226.89L228.08 478.7L271.28 478.7L340.68 478.7L338.73 485.99C336.11 488.61 334.66 490.06 334.37 490.35C333.88 490.84 333.88 491.63 334.37 492.12C334.39 492.14 334.5 492.25 334.7 492.45C334.94 492.69 335.07 492.82 335.1 492.84C335.55 493.3 336.3 493.3 336.75 492.84C337.05 492.55 338.52 491.08 341.17 488.43L369.74 480.77C369.68 480.72 369.65 480.68 369.64 480.68C369.75 480.62 369.83 480.54 369.93 480.47C369.97 480.45 370.01 480.41 370.05 480.39C370.14 480.32 370.24 480.27 370.33 480.18C370.43 480.08 370.92 479.59 371.81 478.7L437.92 478.7L437.92 412.59L437.95 412.57L456.59 393.92L456.59 393.92C456.76 393.75 456.86 393.65 456.88 393.63C459.31 391.2 459.31 387.22 456.88 384.79" id="afnwiS5wq"></path><path d="M261.96 469.38L218.75 469.38L218.75 217.56L261.96 217.56L261.96 469.38Z" id="cwXY3d26D"></path><path d="M428.6 469.38L261.96 469.38L261.96 217.56L428.6 217.56L428.6 469.38Z" id="bY4JgPvgK"></path><path d="M394.98 300.92L301.44 300.92L301.44 258.75L394.98 258.75L394.98 300.92Z" id="d33vxWivU5"></path><path d="M356.62 470.72C345.32 459.42 339.05 453.15 337.79 451.89C336.55 450.65 336.55 448.61 337.79 447.37C342.29 442.87 364.78 420.38 405.27 379.89L428.62 403.24C388.13 443.73 365.64 466.22 361.14 470.72C359.9 471.96 357.86 471.96 356.62 470.72" id="c38hORZF89"></path><path d="M328.51 480L360.41 471.45L337.06 448.1L328.51 480Z" id="e2yBF9Yqae"></path><path d="M428.62 403.24L405.27 379.89C416.45 368.7 422.67 362.49 423.91 361.25C426.5 358.65 430.74 358.65 433.33 361.25C434.72 362.64 445.87 373.79 447.26 375.18C449.85 377.77 449.85 382.01 447.26 384.6C444.78 387.08 438.56 393.3 428.62 403.24Z" id="f27lyyMBfw"></path><path d="M325.72 483.46C325.31 483.06 325.09 482.84 325.05 482.79C324.56 482.31 324.56 481.51 325.05 481.03C325.64 480.43 330.43 475.65 331.03 475.05C331.51 474.56 332.31 474.56 332.79 475.05C332.86 475.12 333.39 475.65 333.46 475.72C333.95 476.2 333.95 477 333.46 477.48C332.86 478.08 328.08 482.87 327.48 483.46C327 483.95 326.2 483.95 325.72 483.46" id="banoWv8ZS"></path><path d="M447.55 375.47L440.3 368.21L325.38 483.13C325.62 483.36 325.75 483.49 325.77 483.52C326.23 483.97 326.97 483.97 327.43 483.52C327.72 483.22 329.19 481.75 331.84 479.1L360.41 471.45C360.36 471.39 360.33 471.36 360.32 471.35C360.56 471.22 360.8 471.07 361 470.86C365.51 466.35 388.05 443.81 428.62 403.24C439.98 391.88 446.29 385.57 447.55 384.31C449.98 381.88 449.98 377.9 447.55 375.47" id="jvpoP5hO4"></path><path d="M389.23 270.25L310.64 270.25L310.64 267.19L389.23 267.19L389.23 270.25Z" id="b1CC4E70oi"></path><path d="M389.23 281.37L310.64 281.37L310.64 278.3L389.23 278.3L389.23 281.37Z" id="eAp87HFTM"></path><path d="M389.23 292.49L310.64 292.49L310.64 289.42L389.23 289.42L389.23 292.49Z" id="bWTwaZAyo"></path></defs><g><g><use xlink:href="#a1C7qwGO1" opacity="1" fill="#31b5ab" fill-opacity="1"></use><g><use xlink:href="#a1C7qwGO1" opacity="1" fill-opacity="0" stroke="#000000" stroke-width="1" stroke-opacity="0"></use></g></g><g><use xlink:href="#afnwiS5wq" opacity="1" fill="#229386" fill-opacity="1"></use><g><use xlink:href="#afnwiS5wq" opacity="1" fill-opacity="0" stroke="#000000" stroke-width="1" stroke-opacity="0"></use></g></g><g><use xlink:href="#cwXY3d26D" opacity="1" fill="#85796f" fill-opacity="1"></use><g><use xlink:href="#cwXY3d26D" opacity="1" fill-opacity="0" stroke="#000000" stroke-width="1" stroke-opacity="0"></use></g></g><g><use xlink:href="#bY4JgPvgK" opacity="1" fill="#decdc0" fill-opacity="1"></use><g><use xlink:href="#bY4JgPvgK" opacity="1" fill-opacity="0" stroke="#000000" stroke-width="1" stroke-opacity="0"></use></g></g><g><use xlink:href="#d33vxWivU5" opacity="1" fill="#bca99d" fill-opacity="1"></use><g><use xlink:href="#d33vxWivU5" opacity="1" fill-opacity="0" stroke="#000000" stroke-width="1" stroke-opacity="0"></use></g></g><g><use xlink:href="#c38hORZF89" opacity="1" fill="#f0bd56" fill-opacity="1"></use><g><use xlink:href="#c38hORZF89" opacity="1" fill-opacity="0" stroke="#000000" stroke-width="1" stroke-opacity="0"></use></g></g><g><use xlink:href="#e2yBF9Yqae" opacity="1" fill="#decdc0" fill-opacity="1"></use><g><use xlink:href="#e2yBF9Yqae" opacity="1" fill-opacity="0" stroke="#000000" stroke-width="1" stroke-opacity="0"></use></g></g><g><use xlink:href="#f27lyyMBfw" opacity="1" fill="#ef5643" fill-opacity="1"></use><g><use xlink:href="#f27lyyMBfw" opacity="1" fill-opacity="0" stroke="#000000" stroke-width="1" stroke-opacity="0"></use></g></g><g><use xlink:href="#banoWv8ZS" opacity="1" fill="#6d6762" fill-opacity="1"></use><g><use xlink:href="#banoWv8ZS" opacity="1" fill-opacity="0" stroke="#000000" stroke-width="1" stroke-opacity="0"></use></g></g><g><use xlink:href="#jvpoP5hO4" opacity="1" fill="#6d6762" fill-opacity="1"></use><g><use xlink:href="#jvpoP5hO4" opacity="1" fill-opacity="0" stroke="#000000" stroke-width="1" stroke-opacity="0"></use></g></g><g><use xlink:href="#b1CC4E70oi" opacity="1" fill="#85796f" fill-opacity="1"></use><g><use xlink:href="#b1CC4E70oi" opacity="1" fill-opacity="0" stroke="#000000" stroke-width="1" stroke-opacity="0"></use></g></g><g><use xlink:href="#eAp87HFTM" opacity="1" fill="#85796f" fill-opacity="1"></use><g><use xlink:href="#eAp87HFTM" opacity="1" fill-opacity="0" stroke="#000000" stroke-width="1" stroke-opacity="0"></use></g></g><g><use xlink:href="#bWTwaZAyo" opacity="1" fill="#85796f" fill-opacity="1"></use><g><use xlink:href="#bWTwaZAyo" opacity="1" fill-opacity="0" stroke="#000000" stroke-width="1" stroke-opacity="0"></use></g></g></g></svg>